<?xml version="1.0" encoding="utf-8"?>
<!-- Generator: Adobe Illustrator 27.5.0, SVG Export Plug-In . SVG Version: 6.00 Build 0)  -->
<svg version="1.1" xmlns="http://www.w3.org/2000/svg" xmlns:xlink="http://www.w3.org/1999/xlink" x="0px" y="0px"
	 viewBox="0 0 1920 1080" style="enable-background:new 0 0 1920 1080;" xml:space="preserve">
<g id="BACKGROUND">
	<rect style="fill:#132B3B;" width="1920" height="1080"/>
</g>
<g id="OBJECTS">
	<g>
		<g>
			<path style="fill:#BE6A5D;" d="M1817.419,218.253c-1.776-2.832-3.167-6.876-0.772-9.209c1.912-1.862,5.064-1.347,7.552-0.381
				c7.924,3.076,14.451,9.577,17.559,17.488c-2.897-5.519-3.824-12.047-2.577-18.155c0.55-2.693,1.581-5.411,3.624-7.249
				c2.043-1.839,5.289-2.539,7.598-1.048c1.926,1.244,2.763,3.607,3.323,5.831c1.789,7.105,2.051,14.59,0.763,21.802
				c2.515-7.502,8.004-13.962,15.003-17.654c2.651-1.399,6-2.374,8.54-0.782c2.997,1.877,3.156,6.211,2.257,9.631
				c-2.072,7.884-8.106,14.618-15.717,17.538c7.421-3.459,15.819-4.792,23.947-3.8c3.436,0.419,7.284,1.605,8.695,4.766
				c1.066,2.388,0.331,5.302-1.302,7.345c-1.633,2.043-4.025,3.34-6.465,4.282c-8.322,3.213-17.991,2.742-25.962-1.264
				c6.434,1.88,11.848,6.954,14.143,13.252c1.705,4.681,1.431,10.596-2.349,13.842c-4.311,3.703-11.419,2.137-15.291-2.022
				c-3.872-4.16-5.176-10.076-5.693-15.735c-0.996,9.84-7.356,18.97-16.24,23.316c-4.064,1.988-9.588,2.736-12.603-0.637
				c-2.682-3.001-1.957-7.725-0.317-11.401c3.082-6.906,8.888-12.552,15.877-15.44c-8.214,4.083-18.002,4.886-26.772,2.197
				c-3.721-1.141-7.761-3.586-8.014-7.469c-0.25-3.845,3.396-6.802,6.961-8.264c3.83-1.571,7.957-2.247,12.079-2.382
				c2.056-0.067,4.115-0.003,6.167,0.14c1.921,0.134,4.047,0.659,5.938,0.558c-1.055-1.057-2.768-1.736-4.016-2.585
				c-1.56-1.062-3.066-2.203-4.512-3.416c-2.867-2.406-5.495-5.098-7.829-8.025C1819.722,221.702,1818.52,220.009,1817.419,218.253z
				"/>
			
				<ellipse transform="matrix(0.9239 -0.3827 0.3827 0.9239 48.4711 726.8168)" style="fill:#D3A13D;" cx="1851.216" cy="241.568" rx="10.375" ry="10.375"/>
		</g>
		<g>
			<path style="fill:#BE6A5D;" d="M600.007,662.8c-1.776-2.832-3.167-6.876-0.773-9.209c1.912-1.862,5.064-1.347,7.552-0.381
				c7.924,3.076,14.451,9.576,17.559,17.488c-2.897-5.519-3.824-12.047-2.577-18.155c0.55-2.693,1.581-5.411,3.624-7.249
				c2.043-1.839,5.289-2.54,7.598-1.048c1.926,1.244,2.763,3.607,3.323,5.831c1.789,7.105,2.051,14.59,0.763,21.802
				c2.515-7.502,8.004-13.962,15.003-17.654c2.651-1.399,6-2.374,8.54-0.783c2.997,1.877,3.156,6.211,2.258,9.631
				c-2.072,7.884-8.107,14.618-15.717,17.538c7.421-3.459,15.819-4.792,23.947-3.8c3.436,0.419,7.284,1.605,8.695,4.766
				c1.066,2.388,0.331,5.302-1.302,7.345c-1.633,2.043-4.025,3.339-6.465,4.282c-8.322,3.213-17.992,2.742-25.962-1.264
				c6.434,1.88,11.848,6.954,14.143,13.252c1.705,4.681,1.431,10.596-2.349,13.842c-4.311,3.703-11.419,2.137-15.291-2.022
				c-3.872-4.159-5.175-10.076-5.693-15.735c-0.996,9.84-7.356,18.97-16.24,23.316c-4.064,1.988-9.588,2.736-12.603-0.637
				c-2.682-3.002-1.957-7.725-0.317-11.401c3.082-6.906,8.888-12.553,15.877-15.44c-8.214,4.083-18.002,4.886-26.772,2.197
				c-3.721-1.141-7.761-3.586-8.014-7.469c-0.25-3.845,3.396-6.802,6.961-8.264c3.83-1.571,7.957-2.247,12.079-2.381
				c2.056-0.067,4.115-0.003,6.167,0.14c1.92,0.134,4.047,0.659,5.938,0.558c-1.055-1.057-2.768-1.735-4.016-2.585
				c-1.56-1.062-3.066-2.203-4.512-3.416c-2.867-2.406-5.496-5.098-7.829-8.025C602.31,666.248,601.108,664.556,600.007,662.8z"/>
			
				<ellipse transform="matrix(0.2287 -0.9735 0.9735 0.2287 -179.0949 1146.1764)" style="fill:#D3A13D;" cx="633.804" cy="686.115" rx="10.375" ry="10.375"/>
		</g>
		<g>
			<path style="fill:#D4CCC5;" d="M48.026,531.702c-2.037-3.248-3.632-7.886-0.886-10.561c2.192-2.135,5.807-1.545,8.66-0.437
				c9.087,3.528,16.572,10.982,20.136,20.055c-3.322-6.329-4.385-13.815-2.955-20.819c0.631-3.088,1.813-6.205,4.156-8.313
				c2.343-2.108,6.065-2.912,8.713-1.202c2.209,1.426,3.169,4.137,3.811,6.686c2.052,8.147,2.352,16.731,0.875,25.002
				c2.884-8.603,9.179-16.011,17.204-20.245c3.04-1.604,6.88-2.722,9.793-0.897c3.436,2.153,3.619,7.123,2.589,11.044
				c-2.376,9.041-9.296,16.763-18.023,20.111c8.51-3.967,18.141-5.495,27.461-4.358c3.941,0.481,8.353,1.841,9.971,5.466
				c1.223,2.739,0.38,6.08-1.493,8.423c-1.873,2.343-4.616,3.83-7.414,4.91c-9.543,3.685-20.632,3.145-29.772-1.449
				c7.378,2.156,13.587,7.974,16.218,15.197c1.955,5.368,1.641,12.151-2.693,15.873c-4.944,4.246-13.095,2.451-17.535-2.319
				c-4.44-4.77-5.935-11.554-6.528-18.044c-1.143,11.284-8.435,21.754-18.624,26.738c-4.661,2.28-10.995,3.138-14.452-0.731
				c-3.076-3.442-2.244-8.859-0.363-13.074c3.534-7.92,10.192-14.395,18.208-17.706c-9.419,4.682-20.644,5.604-30.701,2.52
				c-4.267-1.308-8.9-4.112-9.19-8.565c-0.287-4.409,3.894-7.801,7.982-9.477c4.392-1.801,9.125-2.576,13.852-2.731
				c2.358-0.077,4.719-0.003,7.073,0.161c2.202,0.154,4.641,0.755,6.809,0.64c-1.21-1.212-3.175-1.99-4.605-2.964
				c-1.789-1.218-3.516-2.526-5.174-3.917c-3.288-2.759-6.302-5.846-8.978-9.202C50.666,535.657,49.288,533.716,48.026,531.702z"/>
			<circle style="fill:#D3A13D;" cx="86.782" cy="558.438" r="11.897"/>
		</g>
		<g>
			<path style="fill:#4C6D74;" d="M1390.46,1000.346c-1.776-2.832-3.167-6.876-0.772-9.209c1.911-1.862,5.064-1.347,7.552-0.381
				c7.924,3.076,14.451,9.576,17.559,17.488c-2.897-5.519-3.824-12.047-2.577-18.155c0.55-2.693,1.581-5.411,3.624-7.249
				s5.289-2.539,7.598-1.048c1.926,1.244,2.763,3.607,3.323,5.831c1.789,7.105,2.051,14.59,0.763,21.802
				c2.515-7.502,8.004-13.962,15.003-17.654c2.651-1.399,5.999-2.374,8.54-0.783c2.997,1.877,3.156,6.211,2.257,9.631
				c-2.072,7.884-8.106,14.618-15.717,17.538c7.421-3.459,15.819-4.792,23.947-3.8c3.436,0.419,7.284,1.605,8.695,4.766
				c1.066,2.388,0.331,5.302-1.302,7.345s-4.025,3.339-6.465,4.282c-8.322,3.213-17.991,2.742-25.962-1.264
				c6.434,1.88,11.848,6.954,14.143,13.252c1.705,4.681,1.431,10.596-2.349,13.842c-4.311,3.703-11.419,2.137-15.291-2.022
				c-3.872-4.16-5.176-10.076-5.693-15.735c-0.996,9.84-7.356,18.97-16.24,23.316c-4.064,1.988-9.588,2.736-12.603-0.637
				c-2.682-3.002-1.957-7.725-0.317-11.401c3.082-6.906,8.888-12.553,15.877-15.44c-8.214,4.083-18.002,4.886-26.772,2.197
				c-3.721-1.141-7.761-3.586-8.014-7.469c-0.25-3.845,3.396-6.802,6.961-8.264c3.83-1.571,7.957-2.247,12.079-2.382
				c2.056-0.067,4.116-0.003,6.167,0.14c1.92,0.134,4.047,0.659,5.938,0.558c-1.055-1.057-2.768-1.735-4.016-2.585
				c-1.56-1.062-3.066-2.203-4.512-3.416c-2.867-2.406-5.496-5.098-7.829-8.024
				C1392.762,1003.795,1391.561,1002.102,1390.46,1000.346z"/>
			
				<ellipse transform="matrix(0.7071 -0.7071 0.7071 0.7071 -306.6826 1306.9246)" style="fill:#D3A13D;" cx="1424.256" cy="1023.661" rx="10.375" ry="10.375"/>
		</g>
		<g>
			<path style="fill:#D3A13D;" d="M1654.628,519.179c-1.776-2.832-3.167-6.876-0.773-9.209c1.912-1.862,5.064-1.347,7.552-0.381
				c7.924,3.076,14.451,9.577,17.559,17.488c-2.897-5.519-3.824-12.047-2.577-18.155c0.55-2.693,1.581-5.411,3.624-7.25
				s5.289-2.539,7.598-1.048c1.926,1.244,2.763,3.607,3.323,5.831c1.789,7.105,2.051,14.59,0.763,21.802
				c2.515-7.502,8.004-13.962,15.003-17.654c2.651-1.399,6-2.374,8.54-0.783c2.997,1.877,3.156,6.211,2.258,9.631
				c-2.072,7.884-8.107,14.618-15.717,17.538c7.421-3.459,15.819-4.792,23.947-3.8c3.436,0.419,7.284,1.605,8.695,4.766
				c1.066,2.388,0.331,5.302-1.302,7.345c-1.633,2.043-4.025,3.34-6.465,4.282c-8.322,3.213-17.991,2.742-25.962-1.263
				c6.434,1.88,11.848,6.954,14.143,13.252c1.705,4.681,1.431,10.596-2.349,13.842c-4.311,3.703-11.419,2.137-15.291-2.022
				c-3.872-4.16-5.175-10.076-5.693-15.735c-0.996,9.84-7.356,18.97-16.24,23.316c-4.064,1.988-9.588,2.736-12.603-0.637
				c-2.682-3.001-1.957-7.725-0.317-11.401c3.082-6.906,8.888-12.553,15.877-15.44c-8.214,4.083-18.002,4.887-26.772,2.197
				c-3.721-1.141-7.761-3.586-8.014-7.469c-0.25-3.845,3.396-6.802,6.961-8.264c3.83-1.571,7.957-2.247,12.079-2.382
				c2.057-0.067,4.115-0.003,6.167,0.14c1.92,0.134,4.047,0.659,5.938,0.558c-1.055-1.057-2.768-1.735-4.016-2.585
				c-1.56-1.062-3.066-2.203-4.512-3.416c-2.867-2.406-5.496-5.098-7.829-8.024C1656.931,522.627,1655.729,520.934,1654.628,519.179
				z"/>
			
				<ellipse transform="matrix(0.2298 -0.9732 0.9732 0.2298 772.5215 2061.1106)" style="fill:#BE6A5D;" cx="1688.425" cy="542.493" rx="10.375" ry="10.375"/>
		</g>
		<g>
			<path style="fill:#D3A13D;" d="M21.018,865.54c-1.776-2.832-3.167-6.877-0.773-9.209c1.912-1.862,5.064-1.347,7.552-0.381
				c7.925,3.076,14.451,9.576,17.559,17.489c-2.897-5.519-3.824-12.047-2.577-18.155c0.55-2.693,1.581-5.411,3.624-7.249
				c2.043-1.839,5.289-2.539,7.598-1.048c1.926,1.244,2.763,3.607,3.323,5.831c1.789,7.105,2.051,14.59,0.763,21.802
				c2.515-7.502,8.004-13.962,15.003-17.654c2.651-1.399,5.999-2.374,8.54-0.783c2.997,1.877,3.156,6.211,2.257,9.631
				c-2.072,7.884-8.106,14.618-15.717,17.538c7.421-3.459,15.819-4.792,23.947-3.8c3.436,0.419,7.284,1.605,8.695,4.766
				c1.066,2.388,0.331,5.302-1.302,7.345c-1.633,2.043-4.025,3.339-6.465,4.282c-8.322,3.213-17.992,2.742-25.962-1.264
				c6.434,1.88,11.848,6.954,14.143,13.252c1.705,4.681,1.431,10.596-2.349,13.842c-4.311,3.703-11.419,2.137-15.291-2.022
				c-3.872-4.159-5.176-10.076-5.693-15.735c-0.996,9.84-7.356,18.97-16.24,23.316c-4.064,1.988-9.588,2.736-12.603-0.638
				c-2.682-3.001-1.957-7.725-0.317-11.401c3.082-6.906,8.888-12.552,15.877-15.44c-8.214,4.083-18.002,4.887-26.772,2.197
				c-3.721-1.141-7.761-3.585-8.014-7.469c-0.25-3.845,3.396-6.802,6.961-8.264c3.83-1.571,7.957-2.247,12.079-2.381
				c2.056-0.067,4.115-0.003,6.167,0.14c1.92,0.134,4.047,0.659,5.938,0.558c-1.055-1.057-2.768-1.736-4.016-2.585
				c-1.56-1.062-3.066-2.203-4.512-3.416c-2.867-2.406-5.496-5.098-7.829-8.024C23.321,868.988,22.119,867.295,21.018,865.54z"/>
			
				<ellipse transform="matrix(0.2298 -0.9732 0.9732 0.2298 -822.8557 737.985)" style="fill:#BE6A5D;" cx="54.815" cy="888.854" rx="10.375" ry="10.375"/>
		</g>
		<path style="fill:#D3A13D;" d="M76.241,720.609L76.241,720.609c0,15.658-12.694,28.352-28.352,28.352v0
			c15.658,0,28.352,12.694,28.352,28.352l0,0c0-15.659,12.694-28.352,28.352-28.352v0C88.935,748.961,76.241,736.268,76.241,720.609
			z"/>
		<path style="fill:#D3A13D;" d="M797.626,969.567L797.626,969.567c0,15.659-12.694,28.352-28.352,28.352v0
			c15.659,0,28.352,12.694,28.352,28.352h0c0-15.659,12.694-28.352,28.352-28.352v0C810.32,997.919,797.626,985.225,797.626,969.567
			z"/>
		<path style="fill:#D3A13D;" d="M1308.254,994.054L1308.254,994.054c0,15.658-12.694,28.352-28.352,28.352v0
			c15.658,0,28.352,12.694,28.352,28.352l0,0c0-15.658,12.694-28.352,28.352-28.352v0
			C1320.948,1022.406,1308.254,1009.713,1308.254,994.054z"/>
		<path style="fill:#D3A13D;" d="M1845.307,459.744L1845.307,459.744c0,15.658-12.694,28.352-28.352,28.352v0
			c15.659,0,28.352,12.693,28.352,28.352h0c0-15.659,12.694-28.352,28.352-28.352v0
			C1858.001,488.096,1845.307,475.402,1845.307,459.744z"/>
		<g>
			<g>
				<path style="fill:#D4CCC5;" d="M856.895,940.645c6.135,0.132,12.429-0.812,17.798-3.785c5.369-2.972,9.702-8.186,10.614-14.254
					c2.69-17.891-19.665-19.577-30.355-11.055C845.303,919.244,839.099,940.262,856.895,940.645z"/>
				<path style="fill:#D4CCC5;" d="M884.537,868.437c0.281,2.553,2.127,4.994,4.643,5.512c2.364,0.487,4.747-0.71,6.693-2.137
					c4.341-3.181,8.794-11.963,1.353-14.535C891.142,855.173,883.9,862.643,884.537,868.437z"/>
				<path style="fill:#D4CCC5;" d="M914.357,903.969c-2.199,4.368-3.026,9.942-0.253,13.969c2.652,3.851,7.735,5.145,12.403,5.421
					c6.561,0.389,13.417-0.752,18.833-4.477c11.42-7.853,10.388-23.571-2.531-29.191
					C932.639,885.268,918.793,895.16,914.357,903.969z"/>
				<path style="fill:#D4CCC5;" d="M947.166,866.225c1.264-0.932,2.524-2.122,2.729-3.68c0.165-1.258-0.426-2.535-1.34-3.414
					c-0.914-0.879-2.117-1.404-3.341-1.738c-5.51-1.505-16.57,2.091-16.695,9.161C928.357,875.797,943.78,868.722,947.166,866.225z"
					/>
			</g>
		</g>
	</g>
	<g>
		<path style="fill:#BE6A5D;" d="M1624.951,650.951c9.947-12.553,9.481-32.206-1.05-44.273
			c-10.531-12.067-29.941-15.188-43.724-7.03c-1.006-13.78-9.873-26.713-22.365-32.618c-12.491-5.905-28.114-4.549-39.401,3.42
			c-10.208-10.624-25.196-16.469-39.902-15.561c-10.983,0.678-21.658,5.116-30.035,12.235c-8.848-6.578-20.864-8.754-31.435-5.571
			c-11.205,3.374-20.442,12.661-23.755,23.885c-10.723-5.749-25.14-3.496-33.597,5.252c-8.456,8.748-10.221,23.233-4.112,33.755
			c-17.601-0.931-34.601,13.668-36.34,31.207c-1.74,17.539,12.061,35.193,29.502,37.738c-3.076,14.291,3.788,30.173,16.302,37.727
			c12.515,7.554,29.766,6.226,40.978-3.154c3.538,15.245,15.642,28.196,30.614,32.755c14.971,4.559,32.24,0.552,43.674-10.133
			c0.199,8.284,7.236,14.974,14.866,18.205c7.63,3.231,16.06,3.973,24.017,6.285c24.1,7.003,42.779,29.75,44.961,54.752
			c8.387-0.805,16.774-1.611,25.161-2.416c-6.308-22.56-12.617-45.12-18.925-67.68c9.07,7.244,23.225,7.146,32.193-0.224
			c8.968-7.37,11.807-21.238,6.458-31.539c20.434,4.9,43.449-9.717,47.702-30.295
			C1660.99,677.093,1645.654,654.551,1624.951,650.951z"/>
		<g>
			
				<path style="fill:none;stroke:#D4CCC5;stroke-width:2.9808;stroke-linecap:round;stroke-linejoin:round;stroke-miterlimit:10;" d="
				M1359.132,626.965c4.446,7.858,12.012,13.776,20.552,16.608"/>
			
				<path style="fill:none;stroke:#D4CCC5;stroke-width:2.9808;stroke-linecap:round;stroke-linejoin:round;stroke-miterlimit:10;" d="
				M1389.816,675.576c-8.108-7.277-12.245-18.752-10.623-29.528c1.31-8.653,6.285-16.64,13.33-21.805"/>
			
				<path style="fill:none;stroke:#D4CCC5;stroke-width:2.9808;stroke-linecap:round;stroke-linejoin:round;stroke-miterlimit:10;" d="
				M1404.656,714.103c0.061,3.545,0.45,7.091,1.147,10.559"/>
			
				<path style="fill:none;stroke:#D4CCC5;stroke-width:2.9808;stroke-linecap:round;stroke-linejoin:round;stroke-miterlimit:10;" d="
				M1387.485,691.038c-0.879,2.733-0.218,5.736,0.892,8.384c2.818,6.719,8.616,12.122,15.516,14.461
				c6.9,2.339,14.788,1.574,21.111-2.047"/>
			
				<path style="fill:none;stroke:#D4CCC5;stroke-width:2.9808;stroke-linecap:round;stroke-linejoin:round;stroke-miterlimit:10;" d="
				M1481.651,747.66c5.569-3.694,9.596-9.481,11.442-15.894"/>
			
				<path style="fill:none;stroke:#D4CCC5;stroke-width:2.9808;stroke-linecap:round;stroke-linejoin:round;stroke-miterlimit:10;" d="
				M1464.606,716.644c1.326,4.12,4.449,7.504,8.136,9.772c3.687,2.268,7.918,3.509,12.17,4.319
				c7.993,1.522,16.261,1.593,24.279,0.209c8.363-1.444,16.56-4.534,23.202-9.817c6.642-5.283,11.623-12.885,12.847-21.284
				c1.224-8.398-1.63-17.5-8.075-23.022c-6.445-5.522-16.461-6.826-23.689-2.378"/>
			
				<path style="fill:none;stroke:#D4CCC5;stroke-width:2.9808;stroke-linecap:round;stroke-linejoin:round;stroke-miterlimit:10;" d="
				M1541.283,681c5.221-7.853,13.289-14.059,22.554-15.813c9.266-1.753,19.61,1.45,25.341,8.939
				c4.087,5.34,5.586,12.572,3.96,19.097c-1.626,6.525-6.344,12.207-12.459,15.005c-2.96,1.354-6.28,2.057-9.5,1.578
				c-3.22-0.479-6.314-2.227-8.049-4.982"/>
			
				<path style="fill:none;stroke:#D4CCC5;stroke-width:2.9808;stroke-linecap:round;stroke-linejoin:round;stroke-miterlimit:10;" d="
				M1567.022,611.994c2.69-4.166,6.39-7.642,10.772-9.937"/>
			
				<path style="fill:none;stroke:#D4CCC5;stroke-width:2.9808;stroke-linecap:round;stroke-linejoin:round;stroke-miterlimit:10;" d="
				M1536.495,620.488c7.498-8.032,19.564-11.473,30.171-8.604c10.607,2.868,19.294,11.921,21.723,22.637"/>
			
				<path style="fill:none;stroke:#D4CCC5;stroke-width:2.9808;stroke-linecap:round;stroke-linejoin:round;stroke-miterlimit:10;" d="
				M1502.359,591.52c2.043-6.359,5.95-12.137,11.135-16.39"/>
			
				<path style="fill:none;stroke:#D4CCC5;stroke-width:2.9808;stroke-linecap:round;stroke-linejoin:round;stroke-miterlimit:10;" d="
				M1522.92,603.188c-5.146-7.862-14.911-11.818-24.307-11.9c-6.055-0.053-12.188,1.35-17.352,4.512
				c-5.164,3.161-9.291,8.151-10.924,13.981c-1.633,5.83-0.603,12.459,3.136,17.221c3.739,4.763,10.225,7.359,16.129,6.017
				c2.409-0.548,4.707-1.732,6.376-3.554c1.669-1.822,2.664-4.305,2.476-6.769"/>
			
				<path style="fill:none;stroke:#D4CCC5;stroke-width:2.9808;stroke-linecap:round;stroke-linejoin:round;stroke-miterlimit:10;" d="
				M1449.368,572.241c2.67,1.608,4.993,3.794,6.804,6.311"/>
			
				<path style="fill:none;stroke:#D4CCC5;stroke-width:2.9808;stroke-linecap:round;stroke-linejoin:round;stroke-miterlimit:10;" d="
				M1436.651,592.119c3.443-7.243,10.736-12.513,18.694-13.508c7.958-0.995,16.324,2.317,21.444,8.489"/>
			
				<path style="fill:none;stroke:#D4CCC5;stroke-width:2.9808;stroke-linecap:round;stroke-linejoin:round;stroke-miterlimit:10;" d="
				M1349.6,690.566c1.092-5.448,3.968-10.523,8.081-14.26c4.112-3.737,9.439-6.115,14.966-6.683"/>
			
				<path style="fill:none;stroke:#D4CCC5;stroke-width:2.9808;stroke-linecap:round;stroke-linejoin:round;stroke-miterlimit:10;" d="
				M1605.682,725.161c-6.697-2.353-12.256-7.752-14.804-14.378"/>
			
				<path style="fill:none;stroke:#D4CCC5;stroke-width:2.9808;stroke-linecap:round;stroke-linejoin:round;stroke-miterlimit:10;" d="
				M1591.664,668.451c10.44-0.019,20.741-5.257,26.907-13.682"/>
			
				<path style="fill:none;stroke:#D4CCC5;stroke-width:2.9808;stroke-linecap:round;stroke-linejoin:round;stroke-miterlimit:10;" d="
				M1565.131,755.439c-6.154-1.49-11.692-5.386-15.175-10.674c-3.482-5.288-4.873-11.915-3.811-18.157"/>
			
				<path style="fill:none;stroke:#D4CCC5;stroke-width:2.9808;stroke-linecap:round;stroke-linejoin:round;stroke-miterlimit:10;" d="
				M1484.324,703.844c-2.396,4.476-6.091,8.247-10.517,10.733c-6.281,3.527-14.274,4.321-20.749,1.162
				c-4.788-2.336-8.47-6.669-10.457-11.613c-1.582-3.936-2.14-8.337-1.209-12.475c0.931-4.138,3.422-7.976,7.032-10.203
				c3.61-2.227,8.336-2.701,12.179-0.906"/>
			
				<path style="fill:none;stroke:#D4CCC5;stroke-width:2.9808;stroke-linecap:round;stroke-linejoin:round;stroke-miterlimit:10;" d="
				M1448.137,682.085c0.778-5.36,3.962-10.325,8.509-13.268c4.547-2.943,10.38-3.814,15.589-2.328"/>
			
				<path style="fill:none;stroke:#D4CCC5;stroke-width:2.9808;stroke-linecap:round;stroke-linejoin:round;stroke-miterlimit:10;" d="
				M1395.207,634.547c-1.624-4.446-3.274-9.133-2.533-13.808c0.61-3.854,2.846-7.338,5.782-9.908
				c2.936-2.57,6.539-4.284,10.259-5.463c4.705-1.492,9.829-2.16,14.571-0.789c6.301,1.823,11.348,7.419,12.514,13.874
				c1.166,6.455-1.604,13.462-6.87,17.375"/>
			
				<path style="fill:none;stroke:#D4CCC5;stroke-width:2.9808;stroke-linecap:round;stroke-linejoin:round;stroke-miterlimit:10;" d="
				M1436.022,620.445c0.602,0.117,1.199,0.296,1.767,0.523c5.27,2.109,9.028,7.437,9.471,13.097
				c0.462,5.655-2.245,11.401-6.715,14.905c-4.475,3.484-10.551,4.726-16.117,3.57"/>
		</g>
	</g>
	<g>
		<defs>
			<rect id="SVGID_1_" width="1920" height="1080"/>
		</defs>
		<clipPath id="SVGID_00000137131136529306556570000015669730933905432971_">
			<use xlink:href="#SVGID_1_"  style="overflow:visible;"/>
		</clipPath>
		<g style="clip-path:url(#SVGID_00000137131136529306556570000015669730933905432971_);">
			<path style="fill:#4C6D74;" d="M629.821,1059.311l-2.927-0.238c2.164-26.517,15.042-50.434,27.354-70.331
				c3.138-5.073,6.426-10.179,9.604-15.117c10.215-15.873,20.778-32.286,27.953-49.962c6.217-15.327,14.817-45.093,2.552-72.229
				l2.678-1.21c12.714,28.134,3.886,58.78-2.51,74.544c-7.275,17.93-17.914,34.46-28.203,50.446
				c-3.172,4.927-6.451,10.023-9.576,15.074C644.618,1009.887,631.936,1033.415,629.821,1059.311z"/>
			<g>
				<path style="fill:#4C6D74;" d="M626.804,833.614c0.55-2.578,2.605-4.652,4.991-5.773c2.386-1.121,5.078-1.408,7.714-1.449
					c10.316-0.157,20.635,3.382,28.729,9.771c-3.37-2.819-6.677-5.723-9.506-9.078c-3.376-4.003-6.07-8.723-6.934-13.889
					c-0.42-2.513-0.39-5.154,0.516-7.535c0.906-2.381,2.773-4.469,5.197-5.253c4.065-1.315,8.325,1.191,11.648,3.877
					c7.75,6.264,14.166,14.169,18.701,23.042c-2.19-8.816-2.181-18.169,0.024-26.982c0.607-2.424,1.402-4.858,2.906-6.854
					c1.503-1.996,3.829-3.507,6.328-3.488c2.74,0.021,5.217,1.883,6.637,4.226c1.42,2.344,1.946,5.114,2.269,7.835
					c0.974,8.204,0.312,16.599-1.934,24.55c1.831-6.092,5.009-11.775,9.24-16.524c1.472-1.652,3.204-3.266,5.377-3.681
					c3.565-0.68,7.047,2.303,8.053,5.79c1.006,3.487,0.109,7.236-1.159,10.636c-2.393,6.415-6.191,12.277-10.958,17.182
					c-4.792,4.931-10.574,8.911-16.926,11.552c-3.901,1.622-8.046,2.321-12.18,3.054c-4.374,0.776-8.786,1.366-13.223,1.63
					c-3.275,0.194-6.562,0.209-9.836-0.009c-11.362-0.757-22.84-4.561-31.091-12.407
					C628.555,841.147,625.989,837.436,626.804,833.614z"/>
			</g>
		</g>
		<path style="clip-path:url(#SVGID_00000137131136529306556570000015669730933905432971_);fill:#D3A13D;" d="M724.103,1069.05
			c-1.57-5.347-6.275-9.366-11.511-11.276c-5.235-1.91-10.963-1.975-16.517-1.509c-7.365,0.618-14.645,2.157-21.645,4.526
			c9.783-6.306,18.927-13.603,27.217-21.772c4.868-4.797,9.545-10.044,12.034-16.41c2.488-6.366,2.43-14.095-1.686-19.552
			c-3.897-5.167-10.787-7.432-17.248-7.078c-6.462,0.354-12.582,2.983-18.273,6.064c-23.463,12.703-42.125,34.038-51.594,58.982
			c8.075-20.16,14.441-41.005,19.005-62.238c2.475-11.513,4.385-23.725,0.612-34.88c-3.773-11.156-15.028-20.629-26.602-18.455
			c-12.195,2.291-18.851,15.377-22.623,27.199c-7.509,23.53-10.873,48.376-9.892,73.055c-0.921-25.246-5.533-50.353-13.643-74.278
			c-2.257-6.659-4.866-13.368-9.408-18.734c-4.543-5.366-11.386-9.238-18.384-8.558c-8.232,0.799-14.873,7.777-17.506,15.617
			c-2.633,7.84-1.958,16.39-0.624,24.552c3.515,21.504,11.466,42.268,23.167,60.646c-15.349-22.446-31.929-44.611-54.972-58.758
			c-4.399-2.701-9.144-5.126-14.282-5.621c-5.138-0.495-10.765,1.297-13.659,5.571c-4.686,6.92-0.509,16.252,4.156,23.187
			c16.072,23.892,37.995,43.817,63.309,57.54c-20.762-11.502-43.098-20.16-66.188-25.657c-4.482-1.067-9.1-2.021-13.667-1.415
			c-4.567,0.606-9.136,3.051-11.131,7.203c-1.189,2.474-1.326,5.282-0.736,7.979c0.455,3.561,1.964,6.935,4.258,10.383
			c3.926,5.901,9.6,10.408,15.437,14.428c33.214,22.876,74.133,32.733,114.453,33.598c40.321,0.865,80.349-6.777,119.515-16.396
			c7.283-1.789,14.772-3.752,20.722-8.316C722.149,1084.113,726.215,1076.246,724.103,1069.05z"/>
		<g style="clip-path:url(#SVGID_00000137131136529306556570000015669730933905432971_);">
			<path style="fill:#BE6A5D;" d="M396.831,1015.221c-4.009-7.417-7.812-16.219-2.15-23.949c3.553-4.851,9.64-7.063,15.624-6.476
				c12.475,1.224,20.679,10.668,28.223,19.644c-12.143-31.472-23.204-63.657-27.663-97.094
				c-4.692-35.19-1.709-72.137,14.338-103.928c1.579-3.128,4.326-5.624,7.688-6.611c6.708-1.97,10.713,3.174,13.728,7.917
				c14.191,22.328,23.802,47.554,28.066,73.664c0.083-25.299,0.198-50.874,6.161-75.46c6.706-27.648,21.627-54.401,46.901-68.471
				c5.623-3.13,12.354-4.077,18.411-1.902c13.163,4.727,13.477,19.048,12.337,30.949c-3.211,33.548-10.307,66.723-21.099,98.649
				c4.194-16.435,15.223-31.045,30.028-39.39c3.383-1.907,7.244-2.981,11.117-2.708c14.526,1.026,17.815,17.551,16.643,30.45
				c-4.091,45.004-32.019,83.792-58.955,120.077c13.71-12.96,30.922-22.151,49.277-26.477c8.438-1.989,16.767,3.764,18.221,12.311
				c1.846,10.849-0.784,22.782-6.041,32.68c-7.767,14.623-20.302,26.005-31.872,37.85c-12.933,13.241-24.914,27.409-35.834,42.353
				c-5.299,7.252-10.348,14.687-15.135,22.288c-4.398,6.984-8.157,18.099-13.907,23.847c-14.622,14.617-63.289-42.316-72.922-53.979
				C416.16,1047.101,405.684,1031.602,396.831,1015.221z"/>
			<path style="fill:none;stroke:#D4CCC5;stroke-width:2.4702;stroke-miterlimit:10;" d="M536.826,743.948
				c-45.844,111.927-60.774,236.335-42.715,355.931"/>
		</g>
		<g style="clip-path:url(#SVGID_00000137131136529306556570000015669730933905432971_);">
			<path style="fill:#4C6D74;" d="M1744.073,1060.949c-4.009-7.417-7.811-16.219-2.149-23.949c3.553-4.851,9.64-7.063,15.624-6.476
				c12.475,1.224,20.679,10.669,28.223,19.644c-12.143-31.472-23.204-63.657-27.662-97.094
				c-4.692-35.19-1.709-72.137,14.338-103.928c1.579-3.128,4.326-5.624,7.688-6.611c6.708-1.97,10.713,3.174,13.727,7.917
				c14.191,22.328,23.802,47.554,28.066,73.664c0.083-25.299,0.198-50.874,6.161-75.46c6.706-27.648,21.627-54.401,46.901-68.471
				c5.623-3.13,12.354-4.077,18.411-1.902c13.163,4.727,13.477,19.048,12.337,30.949c-3.211,33.548-10.307,66.723-21.099,98.649
				c4.194-16.435,15.223-31.045,30.028-39.39c3.383-1.907,7.244-2.981,11.117-2.708c14.526,1.026,17.815,17.551,16.643,30.45
				c-4.091,45.004-32.019,83.792-58.955,120.077c13.71-12.96,30.922-22.151,49.277-26.477c8.438-1.989,16.767,3.764,18.221,12.311
				c1.846,10.849-0.784,22.782-6.041,32.68c-7.767,14.623-20.302,26.005-31.872,37.85c-12.933,13.24-24.914,27.409-35.834,42.353
				c-5.299,7.252-10.349,14.687-15.135,22.288c-4.398,6.984-8.158,18.099-13.907,23.847c-14.622,14.617-63.289-42.316-72.922-53.979
				C1763.402,1092.829,1752.926,1077.329,1744.073,1060.949z"/>
			<path style="fill:none;stroke:#D4CCC5;stroke-width:2.4702;stroke-miterlimit:10;" d="M1884.068,789.675
				c-45.844,111.927-60.774,236.335-42.715,355.931"/>
		</g>
		<g style="clip-path:url(#SVGID_00000137131136529306556570000015669730933905432971_);">
			<path style="fill:#D4CCC5;" d="M409.577,782.557c4.635-41.709,78.841-58.215,96.191-126.171
				c-1.043-0.113-2.083-0.235-3.126-0.345c-18.689-1.984-37.407-3.048-56.178-3.89c-68.064-3.052-136.217-3.345-204.337-2.874
				c-38.403,0.265-76.803,0.753-115.204,1.143c3.76,47.005,18.818,100.129,13.572,115.871c-7.821,23.46-28.319,41.47-35.902,75.357
				l36.731,4.621c-1.007,22.927,0.618,65.721,3.791,68.959c8.887,9.064,100.593-33.189,109.55-25.294
				c10.951,9.653-7.889,201.601-7.889,201.601h240.459C487.235,1091.535,403.534,836.942,409.577,782.557z"/>
			<path style="fill:none;stroke:#4C6D74;stroke-width:4.946;stroke-miterlimit:10;" d="M292.343,592.586
				c-2.988-17.148-11.714-34.115-26.686-42.992c-13.148-7.796-29.491-8.461-44.501-5.574c-7.148,1.375-15.086,4.323-17.637,11.14
				c-2.115,5.649,0.444,12.214,4.772,16.416c4.328,4.202,10.115,6.505,15.805,8.507c51.852,18.242,110.047,19.431,161.643,0.479
				c11.165-4.102,22.179-9.226,31.038-17.163c8.86-7.937,15.409-19.039,15.753-30.929c0.404-13.972-7.811-27.117-18.722-35.854
				c-10.911-8.736-24.29-13.735-37.572-18.092c-57.675-18.92-119.71-28.347-179.35-17.059c-11.999,2.271-24.727,5.917-32.312,15.488
				c-6.287,7.934-7.895,18.947-5.643,28.816c2.252,9.869,8.018,18.664,15.06,25.935c23.778,24.555,60.213,31.848,94.375,33.011
				c34.171,1.163,68.504-2.571,101.626-11.053c14.319-3.667,28.566-8.285,41.19-15.975c12.624-7.69,23.612-18.716,29.103-32.439
				c6.727-16.812,4.309-36.974-6.204-51.718c-4.582-6.427-10.955-12.027-18.683-13.631c-10.594-2.198-21.264,3.471-29.572,10.403
				c-22.874,19.087-35.427,48.132-57.51,68.13c-5.681,5.145-12.677,9.865-20.321,9.304c-9.165-0.673-16.301-9.103-18.302-18.072
				c-2.001-8.969,0.055-18.316,2.583-27.151c1.779-6.214,3.908-12.561,8.24-17.357c4.332-4.796,11.428-7.659,17.432-5.269
				c7.543,3.003,10.137,13.138,7.271,20.734s-9.627,12.998-16.511,17.302c-10.61,6.634-22.576,11.687-35.084,12.059
				c-12.508,0.372-25.596-4.53-32.987-14.628c-7.871-10.753-8.173-25.305-5.922-38.438c1.062-6.194,2.84-12.69,7.502-16.904
				s13.017-4.826,16.702,0.264c3.485,4.814,1.221,11.559-1.576,16.804c-10.04,18.829-29.217,35.763-50.335,32.701
				c-12.004-1.74-22.396-9.805-29.394-19.712c-10.092-14.288-13.825-33.715-6.777-49.725c7.048-16.01,26.068-26.708,42.832-21.71
				c23.6,7.037,32.864,38.524,56.268,46.187c9.624,3.152,20.141,1.647,29.955-0.85c9.181-2.336,18.346-5.623,25.695-11.601
				c7.349-5.978,12.674-15.048,12.225-24.51s-7.777-18.71-17.215-19.528c-12.589-1.092-22.485,13.243-20.522,25.725
				c1.963,12.483,12.266,22.152,23.49,27.958c13.916,7.198,30.573,9.898,45.512,5.178c14.939-4.72,27.592-17.552,29.99-33.035
				c2.689-17.364-8.073-35.184-23.6-43.41c-15.527-8.225-34.693-7.735-51.108-1.468c-22.736,8.68-42.09,27.817-66.407,28.802
				c-11.793,0.478-25.777-6.377-26.008-18.178c-0.164-8.36,6.71-15.182,13.887-19.473c22.625-13.528,53.544-11.466,74.173,4.945
				c15.016,11.946,23.949,29.721,35.564,44.994c11.615,15.273,28.694,29.177,47.793,27.329c7.422-0.718,14.782-4.049,19.347-9.945
				c4.565-5.896,5.856-14.481,2.248-21.007c-3.32-6.005-10.138-9.444-16.946-10.297c-6.809-0.852-13.687,0.525-20.358,2.128
				c-31.094,7.473-61.089,20.146-87.184,38.632c-20.335,14.406-39.603,35.696-37.945,60.562
				c1.093,16.381,11.262,30.854,23.174,42.152c14.371,13.629,33,24.327,52.795,23.669c19.795-0.658,39.776-15.746,40.759-35.528
				c0.291-5.856-1.107-11.91-4.599-16.62c-8.491-11.45-26.432-11.298-38.875-4.345c-23.229,12.979-32.089,41.659-36.464,67.906
				c-1.82,10.918-3.221,21.905-4.203,32.93c-0.39,4.379,0.415,28.983-2.949,30.142C292.615,622.7,295.027,607.99,292.343,592.586z"
				/>
		</g>
		<path style="clip-path:url(#SVGID_00000137131136529306556570000015669730933905432971_);fill:#4C6D74;" d="M280.245,1053.512
			l43.939-33.372c-10.724-13.371-27.765-24.938-48.209-34.547l-54.939,64.143l42.019-69.784
			c-11.179-4.531-23.099-8.533-35.368-11.985l-30.062,91.32l18.088-94.487c-26.909-6.687-54.825-10.767-79.752-12.021l1.386,44.881
			c0,0-9.335-26.946-15.596-45.297c-11.291-0.068-21.707,0.525-30.828,1.794l12.077,53.89l-31.245-49.378
			c-15.62,5.731-27.153,16.179-35.451,29.983l65.791,68.887l-75.286-47.833c-7.311,21.955-9.699,48.629-9.197,76.798l325.343,5.951
			c0,0-3.154-32.233-8.663-52.246L280.245,1053.512z"/>
		<g style="clip-path:url(#SVGID_00000137131136529306556570000015669730933905432971_);">
			<g>
				<path style="fill:#D3A13D;" d="M112.812,985.973c1.098-2.081,3.366-3.363,5.688-3.747c2.322-0.384,4.703,0.022,6.977,0.627
					c8.898,2.368,16.903,7.912,22.304,15.364c-2.21-3.239-4.346-6.536-5.962-10.104c-1.929-4.258-3.097-8.965-2.585-13.612
					c0.249-2.26,0.916-4.521,2.272-6.347c1.356-1.825,3.466-3.166,5.738-3.251c3.811-0.143,6.862,3.043,9.064,6.156
					c5.136,7.261,8.729,15.608,10.472,24.329c0.258-8.104,2.535-16.135,6.568-23.169c1.109-1.935,2.383-3.833,4.159-5.182
					c1.776-1.349,4.14-2.083,6.282-1.461c2.349,0.683,4.024,2.883,4.675,5.24c0.651,2.358,0.431,4.864,0.048,7.28
					c-1.155,7.283-3.76,14.333-7.618,20.617c3.051-4.788,7.159-8.898,11.946-11.951c1.665-1.062,3.544-2.028,5.512-1.857
					c3.227,0.281,5.494,3.688,5.512,6.928c0.018,3.239-1.662,6.242-3.576,8.854c-3.612,4.929-8.296,9.043-13.581,12.099
					c-5.313,3.073-11.244,5.088-17.342,5.815c-3.744,0.446-7.474,0.041-11.203-0.332c-3.946-0.395-7.878-0.958-11.753-1.809
					c-2.86-0.628-5.687-1.412-8.446-2.394c-9.575-3.407-18.51-9.459-23.694-18.201C112.488,992.868,111.184,989.058,112.812,985.973
					z"/>
			</g>
			<path style="fill:none;stroke:#D4CCC5;stroke-width:2.6217;stroke-miterlimit:10;" d="M191.959,1092.616
				c1.308-9.36-2.438-18.758-7.568-26.696c-5.13-7.938-11.66-14.889-16.891-22.76c-5.231-7.871-9.209-17.129-8.263-26.533"/>
		</g>
		<g style="clip-path:url(#SVGID_00000137131136529306556570000015669730933905432971_);">
			<path style="fill:#BE6A5D;" d="M1132.271,1162.525c-1.439-30.628-15.437-58.887-28.942-82.491
				c-3.479-6.088-7.079-12.125-10.675-18.164c-11.484-19.272-23.357-39.2-31.205-60.642c-6.897-18.848-16.064-55.345,0.075-88.006
				l3.106,1.536c-15.565,31.501-6.635,66.951,0.075,85.279c7.737,21.137,19.524,40.923,30.927,60.058
				c3.608,6.057,7.215,12.112,10.708,18.218c13.705,23.961,27.918,52.685,29.393,84.05L1132.271,1162.525z"/>
			<g>
				<path style="fill:#BE6A5D;" d="M1145.019,896.495c-0.544-3.063-2.883-5.591-5.651-7.01s-5.931-1.868-9.038-2.023
					c-12.158-0.606-24.472,3.148-34.276,10.353c4.089-3.187,8.107-6.477,11.58-10.318c4.145-4.583,7.513-10.04,8.742-16.096
					c0.598-2.946,0.669-6.062-0.302-8.907c-0.972-2.844-3.088-5.383-5.914-6.407c-4.741-1.716-9.866,1.065-13.894,4.098
					c-9.394,7.071-17.282,16.133-22.992,26.411c2.941-10.307,3.312-21.338,1.071-31.819c-0.617-2.883-1.456-5.786-3.147-8.201
					c-1.692-2.415-4.373-4.292-7.32-4.371c-3.232-0.087-6.229,2.008-7.998,4.714c-1.77,2.706-2.503,5.951-2.995,9.147
					c-1.482,9.635-1.044,19.562,1.281,29.029c-1.911-7.258-5.427-14.089-10.224-19.862c-1.669-2.009-3.645-3.982-6.191-4.559
					c-4.176-0.947-8.404,2.429-9.733,6.5s-0.424,8.528,0.934,12.59c2.561,7.662,6.801,14.73,12.222,20.709
					c5.45,6.01,12.106,10.939,19.49,14.312c4.534,2.071,9.394,3.064,14.239,4.097c5.127,1.093,10.306,1.969,15.527,2.46
					c3.854,0.362,7.73,0.514,11.6,0.39c13.429-0.43,27.119-4.448,37.17-13.365C1142.648,905.307,1145.825,901.035,1145.019,896.495z
					"/>
			</g>
		</g>
		<path style="clip-path:url(#SVGID_00000137131136529306556570000015669730933905432971_);fill:#D3A13D;" d="M1103.457,1058.503
			l38.887-30.673c-9.844-11.824-25.328-21.926-43.834-30.214l-48.254,58.469l36.566-63.32c-10.107-3.883-20.871-7.279-31.939-10.176
			l-25.481,82.452l14.682-85.098c-24.26-5.56-49.382-8.763-71.774-9.48l1.98,40.258c0,0-8.82-24.031-14.741-40.397
			c-10.135,0.124-19.473,0.827-27.638,2.116l11.723,48.167l-28.853-43.803c-13.924,5.4-24.104,14.966-31.325,27.492l60.178,60.745
			l-68.354-41.693c-6.201,19.825-7.907,43.803-6.993,69.077h292.089c0,0-3.36-28.877-8.633-46.748L1103.457,1058.503z"/>
		<g style="clip-path:url(#SVGID_00000137131136529306556570000015669730933905432971_);">
			<g>
				<g>
					<path style="fill:#D4CCC5;" d="M-32.021,163.466c1.085,2.393,4.173,2.961,6.794,3.148c9.987,0.711,20.04,0.483,29.986-0.671
						c5.742-0.666,11.448-1.641,17.085-2.921c3.241-0.736,6.535-1.606,9.276-3.487c2.739-1.88,4.861-4.975,4.727-8.295
						c-0.541-13.348-24.873-20.217-35.347-17.762C-7.429,135.336-36.443,153.698-32.021,163.466z"/>
					<path style="fill:#D4CCC5;" d="M34.441,81.944c0.643,2.36,2.939,3.965,5.315,4.546c3.201,0.783,6.837-0.065,9.124-2.437
						c4.705-4.879,1.335-11.927-4.782-13.242C38.472,69.601,32.963,76.524,34.441,81.944z"/>
					<path style="fill:#D4CCC5;" d="M77.658,127.128c-2.405,3.405-4.414,8.013-2.24,11.571c1.786,2.924,5.62,3.759,9.039,3.965
						c10.609,0.637,21.4-2.255,30.27-8.111c2.099-1.386,4.161-3.014,5.271-5.271c4.555-9.264-8.626-19.635-16.93-19.98
						C93.105,108.887,82.88,119.734,77.658,127.128z"/>
					<path style="fill:#D4CCC5;" d="M65.866,185.615c8.425-0.592,30.975-8.951,17.661-19.1c-7.816-5.958-19.357,1.373-25.051,7.04
						C51.724,180.277,57.757,186.185,65.866,185.615z"/>
					<path style="fill:#D4CCC5;" d="M164.958,156.378c0.874,1.614,3.01,1.959,4.845,2.009c2.367,0.065,4.739-0.05,7.089-0.344
						c5.962-0.746,12.511-8.26,3.976-10.697C176.619,146.133,161.228,149.487,164.958,156.378z"/>
					<path style="fill:#D4CCC5;" d="M151.382,70.868c2.648,1.941,6.246,2.34,9.402,1.436c3.156-0.905,5.881-3.006,7.938-5.564
						c2.057-2.559,3.491-5.563,4.647-8.636c0.263-0.7,0.515-1.471,0.279-2.181c-1.242-3.733-15.718-2.62-19.056-1.246
						C148.299,57.267,145.284,66.399,151.382,70.868z"/>
				</g>
			</g>
			<g>
				<g>
					<path style="fill:#D4CCC5;" d="M1794.091,423.971c1.085,2.393,4.173,2.961,6.794,3.148c9.987,0.711,20.04,0.483,29.986-0.671
						c5.742-0.666,11.448-1.641,17.085-2.921c3.241-0.736,6.535-1.606,9.276-3.487c2.739-1.88,4.861-4.975,4.727-8.294
						c-0.541-13.348-24.873-20.217-35.347-17.763C1818.683,395.84,1789.669,414.203,1794.091,423.971z"/>
					<path style="fill:#D4CCC5;" d="M1860.552,342.449c0.643,2.36,2.939,3.965,5.315,4.546c3.201,0.783,6.836-0.065,9.124-2.437
						c4.706-4.879,1.335-11.927-4.782-13.242C1864.584,330.106,1859.075,337.029,1860.552,342.449z"/>
					<path style="fill:#D4CCC5;" d="M1903.77,387.633c-2.405,3.405-4.414,8.013-2.24,11.571c1.786,2.923,5.62,3.759,9.039,3.965
						c10.609,0.637,21.4-2.255,30.27-8.111c2.099-1.386,4.161-3.014,5.271-5.271c4.555-9.264-8.626-19.635-16.93-19.98
						C1919.217,369.392,1908.991,380.239,1903.77,387.633z"/>
					<path style="fill:#D4CCC5;" d="M1891.978,446.12c8.425-0.591,30.975-8.951,17.661-19.099
						c-7.816-5.958-19.357,1.373-25.051,7.04C1877.836,440.782,1883.869,446.689,1891.978,446.12z"/>
					<path style="fill:#D4CCC5;" d="M1991.07,416.882c0.874,1.614,3.01,1.959,4.845,2.009c2.367,0.065,4.739-0.05,7.089-0.344
						c5.962-0.746,12.51-8.26,3.976-10.697C2002.731,406.637,1987.34,409.992,1991.07,416.882z"/>
					<path style="fill:#D4CCC5;" d="M1977.494,331.372c2.648,1.941,6.246,2.34,9.402,1.435s5.881-3.005,7.938-5.564
						c2.057-2.559,3.491-5.563,4.647-8.636c0.263-0.7,0.515-1.471,0.279-2.181c-1.242-3.733-15.718-2.62-19.056-1.246
						C1974.411,317.771,1971.396,326.903,1977.494,331.372z"/>
				</g>
			</g>
		</g>
		<g style="clip-path:url(#SVGID_00000137131136529306556570000015669730933905432971_);">
			<g>
				<path style="fill:#D4CCC5;" d="M1676.936,1183.204l-42.866-333.066c-11.32-83.508,83.182-127.272,88.631-133.04
					s11.997-32.014,12.754-36.415s-2.986-30.685-4.011-34.204c-1.025-3.519-6.064-20.494-7.153-33.28
					c-1.09-12.786,10.078-17.801,13.651-13.512c3.573,4.289,10.709,23.365,10.709,23.365s-8.573-32.253-10.706-44.114
					c-2.133-11.86,11.618-22.897,17.387-14.03s32.017,82.314,32.017,82.314s-8.965-65.006-11.225-80.95
					c-2.26-15.944,16.086-33.622,20.361-20.399c4.275,13.224,27.374,110.444,27.374,110.444
					c1.781-17.432,11.876-54.129,17.217-69.125c5.341-14.996,28.391-27.374,28.556-10.113c0.165,17.261-6.988,85.381-12.066,98.047
					c-5.079,12.665-39.915,84.526-49.348,99.114c-9.434,14.587-71.748,75.71-71.274,80.185
					c0.474,4.475,67.146,215.947,67.146,215.947L1676.936,1183.204z"/>
				<g>
					<path style="fill:none;stroke:#132B3B;stroke-width:1.7168;stroke-linecap:round;stroke-miterlimit:10;" d="M1754.595,791.058
						c3.819-20.254,14.905-38.406,27.416-54.785c12.511-16.379,26.664-31.528,38.038-48.716c2.812-4.249,5.557-9.152,4.61-14.158
						c-1.115-5.892-7.263-9.88-13.253-10.158c-18.045-0.839-40.848,19.513-50.015,29.943c-11.223,12.77-19.179,28.588-32.578,39.052
						c-15.122,11.81-35.94,15.757-48.738,30.052"/>
					<path style="fill:none;stroke:#132B3B;stroke-width:1.7168;stroke-linecap:round;stroke-miterlimit:10;" d="M1749.219,624.568
						c1.868,16.991,9.078,41.052,9.078,41.052c-6.078,19.069-6.621,40.012-6.621,40.012"/>
					<path style="fill:none;stroke:#132B3B;stroke-width:1.7168;stroke-linecap:round;stroke-miterlimit:10;" d="M1788.557,652.537
						c0.695,6.092,0.445,12.291-0.737,18.307"/>
					<path style="fill:none;stroke:#132B3B;stroke-width:1.7168;stroke-linecap:round;stroke-miterlimit:10;" d="M1824.235,660.249
						c-0.859,2.24-1.896,4.411-3.096,6.488"/>
					<path style="fill:none;stroke:#132B3B;stroke-width:1.7168;stroke-linecap:round;stroke-miterlimit:10;" d="M1832.87,621.601
						c4.065-1.076,8.441-0.951,12.437,0.357"/>
					<path style="fill:none;stroke:#132B3B;stroke-width:1.7168;stroke-linecap:round;stroke-miterlimit:10;" d="M1837.908,617.51
						c0.63-0.234,1.339-0.251,1.979-0.047"/>
					<path style="fill:none;stroke:#132B3B;stroke-width:1.7168;stroke-linecap:round;stroke-miterlimit:10;" d="M1783.583,602.873
						c2.749-2.411,6.396-3.773,10.052-3.752"/>
					<path style="fill:none;stroke:#132B3B;stroke-width:1.7168;stroke-linecap:round;stroke-miterlimit:10;" d="M1784.662,599.01
						c1.268-1.051,2.758-1.834,4.343-2.283"/>
					<path style="fill:none;stroke:#132B3B;stroke-width:1.7168;stroke-linecap:round;stroke-miterlimit:10;" d="M1751.544,623.35
						c2.72-1.579,5.707-2.697,8.796-3.294"/>
					<path style="fill:none;stroke:#132B3B;stroke-width:1.7168;stroke-linecap:round;stroke-miterlimit:10;" d="M1752.911,619.272
						c0.569-0.417,1.242-0.691,1.941-0.79"/>
					<path style="fill:none;stroke:#132B3B;stroke-width:1.7168;stroke-linecap:round;stroke-miterlimit:10;" d="M1734.921,649.407
						c2.799-1.653,5.842-2.892,9-3.665"/>
					<path style="fill:none;stroke:#132B3B;stroke-width:1.7168;stroke-linecap:round;stroke-miterlimit:10;" d="M1737.869,645.052
						c-0.383-0.023-0.766-0.046-1.149-0.069"/>
					<path style="fill:none;stroke:#132B3B;stroke-width:1.7168;stroke-linecap:round;stroke-miterlimit:10;" d="M1762.352,719.211
						c4.117,5.004,9.769,8.727,15.991,10.534"/>
					<path style="fill:none;stroke:#132B3B;stroke-width:1.7168;stroke-linecap:round;stroke-miterlimit:10;" d="M1763.271,725.855
						c1.374,1.879,3.178,3.441,5.234,4.531"/>
					<path style="fill:none;stroke:#132B3B;stroke-width:1.7168;stroke-linecap:round;stroke-miterlimit:10;" d="M1804.472,701.468
						c-8.089-1.128-15.258-7.279-17.604-15.101c4.152-5.893,9.409-10.384,15.384-14.418c2.514-1.698,5.249-3.234,8.258-3.617
						c3.009-0.383,6.355,0.612,8.069,3.114"/>
				</g>
			</g>
			<g>
				<path style="fill:#D4CCC5;" d="M1761.818,1137.505l-204.546-266.329c-50.88-67.179-148.736-31.543-156.667-31.788
					c-7.931-0.245-31.085-14.231-34.726-16.817c-3.641-2.586-19.527-23.857-21.283-27.075c-1.756-3.218-10.157-18.804-18.404-28.636
					c-8.247-9.832-19.7-5.509-19.208,0.051c0.493,5.56,8.889,24.116,8.889,24.116s-16.673-28.91-23.527-38.822
					s-24.385-8.036-22.221,2.319c2.164,10.355,35.366,80.932,35.366,80.932s-39.498-52.403-49.142-65.299
					c-9.644-12.896-35.119-12.486-28.822-0.098c6.297,12.389,58.499,97.596,58.499,97.596c-13.558-11.1-46.599-29.992-60.962-36.855
					c-14.364-6.863-39.434,0.622-27.375,12.974c12.058,12.352,65.178,55.594,77.711,60.989
					c12.534,5.396,87.915,31.762,104.892,35.448c16.976,3.686,104.261,3.059,107.082,6.565
					c2.82,3.506,104.724,200.436,104.724,200.436L1761.818,1137.505z"/>
				<g>
					<path style="fill:none;stroke:#132B3B;stroke-width:1.7168;stroke-linecap:round;stroke-miterlimit:10;" d="M1430.166,914.31
						c-16.994-11.663-37.655-16.711-58.077-19.496c-20.422-2.785-41.14-3.541-61.326-7.702c-4.99-1.029-10.394-2.567-13.254-6.784
						c-3.366-4.963-1.821-12.126,2.229-16.549c12.2-13.323,42.719-14.981,56.574-14.053c16.963,1.135,33.76,6.737,50.639,4.703
						c19.049-2.295,36.59-14.182,55.746-13.075"/>
					<path style="fill:none;stroke:#132B3B;stroke-width:1.7168;stroke-linecap:round;stroke-miterlimit:10;" d="M1316.54,792.503
						c10.661,13.361,22.522,35.503,22.522,35.503c17.759,9.23,32.916,23.692,32.916,23.692"/>
					<path style="fill:none;stroke:#132B3B;stroke-width:1.7168;stroke-linecap:round;stroke-miterlimit:10;" d="M1308.384,840.076
						c3.804,4.809,8.354,9.026,13.436,12.457"/>
					<path style="fill:none;stroke:#132B3B;stroke-width:1.7168;stroke-linecap:round;stroke-miterlimit:10;" d="M1288.533,870.708
						c2.189,0.981,4.455,1.79,6.771,2.415"/>
					<path style="fill:none;stroke:#132B3B;stroke-width:1.7168;stroke-linecap:round;stroke-miterlimit:10;" d="M1255.152,849.403
						c-3.641,2.105-6.654,5.28-8.565,9.026"/>
					<path style="fill:none;stroke:#132B3B;stroke-width:1.7168;stroke-linecap:round;stroke-miterlimit:10;" d="M1248.695,850.057
						c-0.612,0.278-1.126,0.766-1.436,1.363"/>
					<path style="fill:none;stroke:#132B3B;stroke-width:1.7168;stroke-linecap:round;stroke-miterlimit:10;" d="M1276.879,801.363
						c-3.649,0.23-7.195,1.837-9.772,4.431"/>
					<path style="fill:none;stroke:#132B3B;stroke-width:1.7168;stroke-linecap:round;stroke-miterlimit:10;" d="M1273.39,799.386
						c-1.641,0.149-3.249,0.645-4.689,1.445"/>
					<path style="fill:none;stroke:#132B3B;stroke-width:1.7168;stroke-linecap:round;stroke-miterlimit:10;" d="M1314.033,793.279
						c-3.042,0.8-5.948,2.114-8.558,3.87"/>
					<path style="fill:none;stroke:#132B3B;stroke-width:1.7168;stroke-linecap:round;stroke-miterlimit:10;" d="M1310.187,791.352
						c-0.698,0.106-1.368,0.387-1.933,0.809"/>
					<path style="fill:none;stroke:#132B3B;stroke-width:1.7168;stroke-linecap:round;stroke-miterlimit:10;" d="M1344.196,800.024
						c-3.15,0.803-6.181,2.071-8.965,3.75"/>
					<path style="fill:none;stroke:#132B3B;stroke-width:1.7168;stroke-linecap:round;stroke-miterlimit:10;" d="M1339.034,799.017
						c0.255-0.286,0.51-0.573,0.766-0.859"/>
					<path style="fill:none;stroke:#132B3B;stroke-width:1.7168;stroke-linecap:round;stroke-miterlimit:10;" d="M1373.988,868.853
						c0.611,6.451-0.769,13.076-3.906,18.747"/>
					<path style="fill:none;stroke:#132B3B;stroke-width:1.7168;stroke-linecap:round;stroke-miterlimit:10;" d="M1378.024,874.211
						c0.352,2.301,0.174,4.68-0.514,6.904"/>
					<path style="fill:none;stroke:#132B3B;stroke-width:1.7168;stroke-linecap:round;stroke-miterlimit:10;" d="M1331.617,885.986
						c4.938-6.505,5.682-15.922,1.826-23.121c-7.1-1.248-13.995-0.724-21.075,0.631c-2.979,0.57-6.002,1.41-8.405,3.261
						c-2.403,1.852-4.073,4.916-3.523,7.899"/>
				</g>
			</g>
		</g>
	</g>
</g>
</svg>
