<?xml version="1.0" encoding="utf-8"?>
<!-- Generator: Adobe Illustrator 27.5.0, SVG Export Plug-In . SVG Version: 6.00 Build 0)  -->
<svg version="1.1" xmlns="http://www.w3.org/2000/svg" xmlns:xlink="http://www.w3.org/1999/xlink" x="0px" y="0px"
	 viewBox="0 0 500 500" style="enable-background:new 0 0 500 500;" xml:space="preserve">
<g id="BACKGROUND">
	<g>
		<rect style="fill:#FFE8D4;" width="500" height="500"/>
		<g>
			<path style="fill:#FFE8D4;" d="M311.55,344.38c-81.49,6.35-162.2,22.82-239.67,48.89c-16.89,5.69-33.98,11.9-51.8,12.34
				c-6.75,0.16-13.45-0.51-20.08-1.75V165.99c7.1-2.24,14.55-2.93,21.84-1.38c15.13,3.21,28,18.36,25.05,33.54
				c-1.92,9.88-9.53,17.51-16.78,24.5c7.35-5.71,18.63-6.36,25.86-0.49c7.22,5.86,8.53,18.14,1.89,24.65
				c8.67-4.21,18.47-7.57,27.83-5.27s17.3,12.33,14.15,21.44c4.94-7.62,15.36-11.16,23.92-8.13c8.57,3.04,14.43,12.35,13.47,21.38
				c4.42-5.47,12.34-7.81,19.03-5.64c6.68,2.17,11.71,8.72,12.07,15.75c6.97-7.64,18.93-10.22,28.42-6.13
				c9.5,4.08,15.85,14.53,15.1,24.84C246.18,315.75,275.64,342.46,311.55,344.38z"/>
			<path style="fill:#FFE8D4;" d="M188.45,344.38c81.49,6.35,162.2,22.82,239.67,48.89c16.89,5.69,33.98,11.9,51.8,12.34
				c6.75,0.16,13.45-0.51,20.08-1.75V165.99c-7.1-2.24-14.55-2.93-21.84-1.38c-15.13,3.21-28,18.36-25.05,33.54
				c1.92,9.88,9.53,17.51,16.78,24.5c-7.35-5.71-18.63-6.36-25.86-0.49c-7.22,5.86-8.53,18.14-1.89,24.65
				c-8.67-4.21-18.47-7.57-27.83-5.27s-17.3,12.33-14.15,21.44c-4.94-7.62-15.36-11.16-23.92-8.13
				c-8.57,3.04-14.43,12.35-13.47,21.38c-4.42-5.47-12.34-7.81-19.03-5.64c-6.68,2.17-11.71,8.72-12.07,15.75
				c-6.97-7.64-18.93-10.22-28.42-6.13c-9.5,4.08-15.85,14.53-15.1,24.84C253.82,315.75,224.36,342.46,188.45,344.38z"/>
		</g>
		<path style="fill:#6E985F;" d="M500,385.76V500H0V385.76c61.76-27.02,150.89-41.47,250-41.47S438.24,358.74,500,385.76z"/>
	</g>
</g>
<g id="OBJECTS">
	<path style="opacity:0.22;fill:#6E985F;" d="M78.549,376.459c0,0-71.146,75.267-78.549,89.587V500h500v-33.954
		c0,0-51.535-68.941-78.549-89.587H78.549z"/>
	<g>
		<g>
			<g>
				<polygon style="fill:#FFB85A;" points="26.329,474.008 473.671,474.008 421.451,376.459 78.549,376.459 				"/>
			</g>
		</g>
	</g>
	<g>
		<ellipse style="opacity:0.22;fill:#3C1319;" cx="254.419" cy="431.799" rx="141.633" ry="25.325"/>
		<g>
			<g>
				<g>
					<path style="fill:#FFAF88;" d="M58.323,308.63c0,0-4.954-4.377-5.196-6c-0.242-1.623,0.87-8.059,0.4-9.831
						c-0.47-1.772-4.836-3.811-6.246,3.082c-1.41,6.892-1.226,6.361,5.813,15.519"/>
					<path style="fill:#FFFFFF;" d="M154.496,358.394c0,0-10.683,2.346-22.264-11.106c-11.58-13.452-14.685-37.339-14.685-37.339
						l18.084,3.576l27.119,31.817l-7.445,11.835"/>
					<path style="fill:#FFAF88;" d="M71.83,331.979c0,0,39.684,18.133,62.515,22.805c13.604,3.933,23.213-4.339,23.213-4.339
						l-24.866-38.549l-53.761-1.163"/>
					<path style="fill:#FFAF88;" d="M75.673,333.151c0,0-23.363-6.474-29.181-10.275c-5.818-3.802-18.789-26.927-15.369-31.041
						c3.42-4.114,16.214,18.163,16.214,18.163s8.384-6.347,18.289-2.073c0,0-0.683-6.935-3.658-9.856c0,0-10.174-2.741-12.867-5.72
						c-2.692-2.98,9.673-2.471,15.306-0.255c5.634,2.216,16.763,19.281,16.763,19.281l-5.161,21.264"/>
					<path style="fill:#FFAF88;" d="M48.097,312.76c-5.402-6.816-9.187-14.904-10.96-23.418c-0.166-0.797-0.263-1.763,0.351-2.298
						c0.967-0.843,2.383,0.264,3.15,1.292c5.796,7.767,10.745,16.166,14.732,24.999"/>
					<path style="fill:#FFAF88;" d="M50.2,324.665c-8.532-1.687-16.658-5.39-23.529-10.722c-0.644-0.499-1.343-1.171-1.223-1.977
						c0.189-1.269,1.985-1.344,3.236-1.059c9.448,2.154,18.662,5.339,27.425,9.478"/>
					<g>
						<path style="fill:#3C1319;" d="M72.028,313.285c-0.083,0.026-0.174,0.026-0.26-0.007c-11.969-4.676-18.164,3.483-18.225,3.567
							c-0.126,0.173-0.37,0.209-0.544,0.081c-0.174-0.128-0.21-0.371-0.082-0.545c0.065-0.086,6.62-8.718,19.133-3.829
							c0.201,0.078,0.299,0.304,0.221,0.504C72.226,313.169,72.135,313.25,72.028,313.285z"/>
					</g>
					<g>
						<path style="fill:#3C1319;" d="M50.753,315.157c-0.161,0.052-0.343-0.005-0.442-0.152l-10.745-15.926
							c-0.12-0.178-0.073-0.42,0.104-0.541c0.179-0.12,0.421-0.073,0.54,0.105l10.745,15.926c0.12,0.178,0.073,0.42-0.104,0.541
							C50.821,315.131,50.787,315.147,50.753,315.157z"/>
					</g>
					<g>
						<path style="fill:#3C1319;" d="M53.769,306.93l-6.365-9.434c-0.12-0.179-0.362-0.225-0.54-0.105
							c-0.177,0.121-0.225,0.362-0.104,0.541l6.467,9.585C53.407,307.32,53.581,307.118,53.769,306.93z"/>
					</g>
					<g>
						<path style="fill:#3C1319;" d="M51.075,320.737c-0.031,0.01-0.064,0.016-0.097,0.018c-0.215,0.013-0.398-0.151-0.41-0.366
							c-0.023-0.413-0.534-10.142,1.99-12.71c0.148-0.154,0.395-0.158,0.55-0.006c0.153,0.151,0.155,0.397,0.005,0.55
							c-2.285,2.328-1.773,12.026-1.768,12.123C51.354,320.526,51.239,320.685,51.075,320.737z"/>
					</g>
					<g>
						<path style="fill:#3C1319;" d="M50.895,319.355c-0.101,0.032-0.216,0.024-0.315-0.034c-4.881-2.833-11.933-4.948-12.004-4.969
							c-0.206-0.061-0.323-0.279-0.261-0.484c0.061-0.205,0.275-0.324,0.484-0.262c0.071,0.021,7.212,2.162,12.172,5.043
							c0.186,0.107,0.249,0.346,0.141,0.532C51.061,319.266,50.983,319.326,50.895,319.355z"/>
					</g>
				</g>
				<path style="fill:#F57445;" d="M166.455,354.007c20.687-16.163,34.975-71.415,34.975-71.415l12.04-15.384l-2.007-46.487
					c0,0-4.977-0.069-12.159,1.815l-5.165-9.345c-7.66,0.782-11.219,2.677-17.283,9.307c-4.862,5.316-48.177,71.987-48.963,84.573"
					/>
			</g>
			<path style="fill:#FFFFFF;" d="M127.716,303.699c4.991,2.52,16.724,11.419,29.193,25.104
				c6.949,7.627,11.021,12.786,13.406,16.208c2.347,3.366,1.134,7.977-2.529,9.826c-3.492,1.763-8.216,3.509-13.29,3.557
				c0,0-10.966-32.326-36.949-48.446l9.456-5.816"/>
		</g>
		<g>
			<g>
				<g>
					<path style="fill:#FFAF88;" d="M445.043,317.499c0,0,4.954-4.377,5.196-6c0.242-1.623-0.87-8.059-0.4-9.831
						c0.47-1.772,4.836-3.811,6.246,3.082c1.41,6.892,1.226,6.361-5.813,15.519"/>
					<path style="fill:#FFFFFF;" d="M353.116,365.513c0,0,10.683,2.346,22.264-11.106c11.58-13.452,14.685-37.339,14.685-37.339
						l-18.084,3.576l-27.119,31.817l7.445,11.835"/>
					<path style="fill:#FFAF88;" d="M431.536,340.848c0,0-35.438,16.383-58.269,21.054c-13.604,3.933-23.213-4.339-23.213-4.339
						l24.866-38.549l49.515,0.588"/>
					<path style="fill:#FFAF88;" d="M427.693,342.021c0,0,23.363-6.474,29.181-10.275c5.818-3.802,18.789-26.927,15.369-31.041
						c-3.42-4.114-16.214,18.163-16.214,18.163s-8.384-6.347-18.289-2.073c0,0,0.683-6.935,3.658-9.856
						c0,0,10.174-2.741,12.867-5.72c2.692-2.98-9.673-2.471-15.306-0.255c-5.634,2.216-16.763,19.281-16.763,19.281l5.161,21.264"/>
					<path style="fill:#FFAF88;" d="M455.269,321.63c5.402-6.816,9.187-14.904,10.96-23.418c0.166-0.797,0.263-1.763-0.351-2.298
						c-0.967-0.843-2.383,0.264-3.15,1.292c-5.796,7.767-10.745,16.166-14.732,24.999"/>
					<path style="fill:#FFAF88;" d="M453.166,333.535c8.532-1.687,16.658-5.39,23.529-10.722c0.644-0.499,1.343-1.171,1.223-1.977
						c-0.189-1.269-1.985-1.344-3.236-1.059c-9.448,2.154-18.662,5.339-27.425,9.478"/>
					<g>
						<path style="fill:#3C1319;" d="M431.339,322.155c0.082,0.026,0.174,0.026,0.26-0.007c11.969-4.676,18.164,3.483,18.225,3.567
							c0.126,0.172,0.37,0.209,0.544,0.081c0.174-0.128,0.21-0.371,0.082-0.545c-0.065-0.086-6.62-8.718-19.133-3.829
							c-0.201,0.078-0.299,0.304-0.221,0.504C431.14,322.039,431.231,322.12,431.339,322.155z"/>
					</g>
					<g>
						<path style="fill:#3C1319;" d="M452.613,324.027c0.161,0.052,0.343-0.005,0.442-0.152l10.745-15.926
							c0.12-0.178,0.073-0.42-0.104-0.541c-0.179-0.12-0.421-0.073-0.54,0.105l-10.745,15.926c-0.12,0.178-0.073,0.42,0.104,0.541
							C452.545,324.001,452.579,324.016,452.613,324.027z"/>
					</g>
					<g>
						<path style="fill:#3C1319;" d="M457.004,306.26c-0.179-0.12-0.421-0.073-0.54,0.105l-6.222,9.222
							c0.188,0.188,0.369,0.382,0.547,0.58l6.319-9.366C457.229,306.622,457.181,306.38,457.004,306.26z"/>
					</g>
					<g>
						<path style="fill:#3C1319;" d="M452.291,329.607c0.031,0.01,0.064,0.016,0.098,0.018c0.215,0.013,0.398-0.151,0.41-0.366
							c0.023-0.413,0.534-10.142-1.99-12.71c-0.148-0.154-0.395-0.158-0.55-0.006c-0.153,0.151-0.155,0.397-0.005,0.55
							c2.285,2.328,1.773,12.026,1.768,12.123C452.012,329.396,452.127,329.554,452.291,329.607z"/>
					</g>
					<g>
						<path style="fill:#3C1319;" d="M452.471,328.224c0.101,0.032,0.216,0.024,0.315-0.034c4.881-2.833,11.933-4.948,12.004-4.969
							c0.206-0.061,0.323-0.279,0.261-0.484c-0.061-0.205-0.275-0.324-0.484-0.262c-0.071,0.021-7.212,2.162-12.172,5.043
							c-0.186,0.107-0.249,0.346-0.141,0.532C452.305,328.136,452.383,328.196,452.471,328.224z"/>
					</g>
				</g>
				<path style="fill:#F57445;" d="M341.157,361.127c-20.687-16.163-34.975-71.415-34.975-71.415l-12.04-15.384l2.007-46.487
					c0,0-1.852-3.627,5.33-1.743l3.601-11.187c7.66,0.782,16.778,5.305,22.842,11.934c4.862,5.316,51.011,74.759,51.797,87.345"/>
			</g>
			<path style="fill:#FFFFFF;" d="M379.896,310.819c-4.991,2.52-16.724,11.419-29.193,25.104
				c-6.949,7.627-11.021,12.786-13.406,16.208c-2.347,3.366-1.134,7.977,2.529,9.826c3.492,1.763,8.216,3.509,13.29,3.557
				c0,0,10.966-32.326,36.949-48.446l-9.456-5.816"/>
		</g>
		<path style="fill:#415583;" d="M195.367,357.557c0,0,49.903,20.852,110.219-2.749l2.263,27l-54.555,23.416
			c0,0-58.323-13.46-58.011-14.893C195.596,388.897,195.367,357.557,195.367,357.557z"/>
		<path style="fill:#FFFFFF;" d="M217.226,201.737c0,0,6.843-3.832,27.918-3.285c21.075,0.547,24.086,0.821,24.086,0.821
			l-16.149,26.823l-29.012-9.306L217.226,201.737z"/>
		<g>
			<path style="fill:#FFAF88;" d="M246.96,233.7c-20.71-1.31-20.38-30.69-20.38-30.69l-0.16-2.7l-0.11-1.91l-0.95-16.25l20.19-3.34
				h0.01l19.76-3.27l0.16,10.49l0.13,8.55l0.11,6.84C265.72,201.42,267.66,235,246.96,233.7z"/>
			<path style="fill:#3C1319;" d="M265.48,186.03c0,0-13.71,12.96-39.17,12.37l-0.95-16.25l20.19-3.34h0.01L265.48,186.03z"/>
		</g>
		<path style="fill:#F57445;" d="M315.01,295.344c0,0,20.057,65.842-2.934,77.338c-7.016,3.508-66.649,12.236-119.882-0.821
			c0,0-12.316-7.39-8.561-36.009c1.573-11.99,6.919-122.054,6.919-122.054c8.622-2.053,16.683-2.195,16.683-2.195
			s34.352-1.38,34.899-0.011c0.547,1.369,5.474,14.233,5.474,14.233l3.558-13.959l26.549-1.369c0,0,15.192,1.875,27.366,4.415"/>
		<path style="fill:#FFFFFF;" d="M242.133,211.59c0,0-22.991-8.485-24.907-9.853c0,0-5.2,5.2-11.222,13.685
			c0,0,18.612,18.065,24.633,19.433L242.133,211.59z"/>
		<path style="fill:#FFFFFF;" d="M251.165,211.317c0,0,16.149-10.674,18.064-12.043c0,0,9.032,6.295,15.054,14.78
			c0,0-15.601,19.159-21.623,20.528L251.165,211.317z"/>
		
			<line style="fill:none;stroke:#3C1319;stroke-linecap:round;stroke-linejoin:round;stroke-miterlimit:10;" x1="247.607" y1="225.823" x2="247.607" y2="263.3"/>
		<path style="fill:#FFFFFF;" d="M250.796,232.252c0,1.756-1.424,3.179-3.179,3.179c-1.756,0-3.18-1.424-3.18-3.179
			c0-1.756,1.424-3.179,3.18-3.179C249.373,229.073,250.796,230.497,250.796,232.252z"/>
		<path style="fill:#FFFFFF;" d="M250.796,250c0,1.756-1.424,3.179-3.179,3.179c-1.756,0-3.18-1.424-3.18-3.179
			c0-1.756,1.424-3.179,3.18-3.179C249.373,246.821,250.796,248.244,250.796,250z"/>
		<g>
			<g>
				<g>
					<path style="fill:#FFAF88;" d="M187.693,446.869c0,0-10.823-19.161-4.412-28.45c4.519-6.547,22.016-2.147,35.674-1.758
						l105.925-37.483l9.942,49.597L187.693,446.869z"/>
				</g>
				<g>
					<g>
						<path style="fill:#FFFFFF;" d="M209.62,401.126c-1.601-1.37-3.358-2.737-5.304-4.074c0,0-11.643,5.763-35.208,29.51
							c-26.33,26.534-26.324,33.29-26.324,33.29s1.11,1.446,3.541,2.756C168.872,429.109,194.783,410.103,209.62,401.126z"/>
					</g>
					<path style="fill:#FFFFFF;" d="M160.733,439.622c-15.108,16.734-14.407,22.985-14.407,22.985s7.134,4.123,27.218-4.829
						C170.685,450.66,166.738,444.16,160.733,439.622z"/>
					<path style="fill:#3C1319;" d="M209.62,401.126c-7.499,1.22-20.387,12.161-25.302,16.543l-9.988,8.257
						c-5.567,5.192-10.021,9.736-13.597,13.697c6.005,4.537,9.952,11.038,12.811,18.156c5.64-2.514,12.3-6.057,20.112-11.014
						c0.604-0.383,0.852-1.197,0.844-2.302c0.631-3.863,6.826-18.174,21.195-24.972c4.833-1.266,5.281-3.107,5.281-3.107
						C222.251,409.873,209.62,401.126,209.62,401.126z"/>
				</g>
				<g>
					<path style="fill:#FFFFFF;" d="M181.445,455.549c-0.253,0-0.468-0.191-0.493-0.447c-0.623-6.422-3.678-10.56-5.146-12.548
						c-0.497-0.672-0.7-0.955-0.77-1.209c-0.071-0.264,0.083-0.537,0.348-0.608c0.261-0.073,0.53,0.082,0.605,0.341
						c0.046,0.121,0.335,0.511,0.613,0.889c1.402,1.899,4.685,6.345,5.335,13.04c0.025,0.272-0.174,0.513-0.445,0.541
						C181.476,455.548,181.461,455.549,181.445,455.549z"/>
				</g>
				<g>
					<path style="fill:#FFFFFF;" d="M187.225,452.922c-0.253,0-0.468-0.191-0.493-0.448c-0.622-6.421-3.678-10.559-5.146-12.547
						c-0.495-0.672-0.7-0.955-0.77-1.21c-0.072-0.264,0.083-0.537,0.348-0.608c0.257-0.072,0.532,0.082,0.605,0.341
						c0.046,0.121,0.335,0.51,0.613,0.888c1.402,1.899,4.686,6.346,5.335,13.041c0.025,0.272-0.174,0.513-0.445,0.541
						C187.256,452.92,187.241,452.922,187.225,452.922z"/>
				</g>
				<g>
					<path style="fill:#FFFFFF;" d="M185.982,447.512c-0.072,0-0.143-0.016-0.211-0.046c-0.19-0.089-0.302-0.287-0.282-0.496
						c0.05-0.519,1.27-12.669,6.898-12.4c1.108,0.061,1.537,0.586,1.702,1.015c1.048,2.726-6.277,10.292-7.754,11.781
						C186.237,447.462,186.111,447.512,185.982,447.512z M192.187,435.554c-3.297,0-4.952,6.297-5.529,10.051
						c3.303-3.496,7.048-8.253,6.505-9.666c-0.031-0.084-0.132-0.343-0.832-0.382C192.284,435.554,192.235,435.554,192.187,435.554z
						"/>
				</g>
				<g>
					<path style="fill:#FFFFFF;" d="M197.281,450.252c-3.722,0-9.968-2.143-11.49-2.685c-0.197-0.069-0.329-0.256-0.329-0.466
						c0-0.209,0.131-0.396,0.329-0.466c0.487-0.178,12.047-4.251,14.155,0.966c0.416,1.029,0.124,1.64-0.193,1.972
						C199.286,450.059,198.397,450.252,197.281,450.252z M187.523,447.113c4.569,1.5,10.469,2.871,11.513,1.774
						c0.064-0.066,0.255-0.265-0.008-0.916C197.752,444.822,191.216,446.02,187.523,447.113z"/>
				</g>
			</g>
			<path style="fill:#415583;" d="M217.388,404.859c-6.115,15.978,4.596,48.269,4.596,48.269s119.134-17.875,148.416-29.166
				c13.704-5.285,34.195-34.31-3.518-56.413C342.017,352.975,217.388,404.859,217.388,404.859z"/>
		</g>
		<g>
			<path style="fill:#415583;" d="M217.388,404.859c-6.115,15.978,4.596,48.269,4.596,48.269s119.134-17.875,148.416-29.166
				c13.704-5.285,34.195-34.31-3.518-56.413C342.017,352.975,217.388,404.859,217.388,404.859z"/>
			<path style="fill:none;stroke:#3C1319;stroke-linecap:round;stroke-linejoin:round;stroke-miterlimit:10;" d="M298.1,375.967
				c-39.676,11.808-80.712,28.892-80.712,28.892"/>
			<g>
				<g>
					<path style="fill:#FFAF88;" d="M303.831,447.769c0,0,11.66-18.663,5.666-28.227c-4.225-6.741-21.899-3.119-35.561-3.335
						l-104.163-42.133l-12.127,49.109L303.831,447.769z"/>
				</g>
				<g>
					<g>
						<path style="fill:#FFFFFF;" d="M283.95,401.101c1.66-1.297,3.476-2.586,5.479-3.835c0,0,11.376,6.272,33.867,31.039
							c25.13,27.673,24.825,34.422,24.825,34.422s-1.173,1.395-3.66,2.597C323.42,430.86,298.375,410.726,283.95,401.101z"/>
					</g>
					<path style="fill:#FFFFFF;" d="M331.086,441.723c14.352,17.386,13.376,23.6,13.376,23.6s-7.309,3.803-26.978-6.029
						C320.655,452.309,324.886,445.99,331.086,441.723z"/>
					<path style="fill:#3C1319;" d="M283.95,401.101c7.437,1.551,19.829,13.051,24.546,17.647l9.613,8.69
						c5.332,5.434,9.581,10.17,12.978,14.285c-6.2,4.267-10.431,10.586-13.602,17.571c-5.523-2.761-12.02-6.596-19.604-11.893
						c-0.586-0.409-0.799-1.233-0.742-2.337c-0.459-3.887-6.015-18.458-20.069-25.885c-4.772-1.479-5.138-3.338-5.138-3.338
						C270.944,409.281,283.95,401.101,283.95,401.101z"/>
				</g>
				<g>
					<path style="fill:#FFFFFF;" d="M309.711,456.717c-0.023,0-0.046-0.002-0.07-0.005c-0.271-0.039-0.458-0.289-0.42-0.56
						c0.946-6.658,4.423-10.956,5.906-12.791c0.298-0.367,0.603-0.745,0.654-0.863c0.101-0.244,0.379-0.38,0.634-0.289
						c0.248,0.092,0.387,0.348,0.305,0.6c-0.081,0.251-0.298,0.525-0.824,1.174c-1.553,1.921-4.788,5.92-5.697,12.307
						C310.165,456.54,309.954,456.717,309.711,456.717z"/>
				</g>
				<g>
					<path style="fill:#FFFFFF;" d="M304.052,453.837c-0.023,0-0.046-0.002-0.069-0.005c-0.271-0.039-0.458-0.289-0.42-0.56
						c0.946-6.66,4.422-10.958,5.908-12.793c0.296-0.365,0.601-0.744,0.652-0.861c0.104-0.245,0.379-0.382,0.634-0.289
						c0.248,0.093,0.387,0.348,0.306,0.6c-0.081,0.251-0.298,0.524-0.822,1.172c-1.555,1.922-4.79,5.92-5.699,12.309
						C304.507,453.659,304.296,453.837,304.052,453.837z"/>
				</g>
				<g>
					<path style="fill:#FFFFFF;" d="M305.534,448.488c-0.137,0-0.271-0.057-0.366-0.162c-1.412-1.553-8.394-9.436-7.226-12.113
						c0.184-0.422,0.634-0.926,1.744-0.939c0.014,0,0.029,0,0.043,0c5.589,0,6.273,12.175,6.3,12.694
						c0.01,0.209-0.112,0.402-0.305,0.482C305.663,448.476,305.598,448.488,305.534,448.488z M299.727,436.264
						c-0.01,0-0.019,0-0.029,0c-0.702,0.008-0.812,0.261-0.849,0.345c-0.605,1.387,2.926,6.304,6.07,9.944
						C304.505,442.733,303.099,436.264,299.727,436.264z"/>
				</g>
				<g>
					<path style="fill:#FFFFFF;" d="M294.587,450.734c-1.342,0-2.413-0.221-2.92-0.798c-0.304-0.346-0.568-0.97-0.108-1.979
						c2.34-5.12,13.702-0.536,14.186-0.337c0.193,0.079,0.317,0.272,0.307,0.481c-0.01,0.209-0.149,0.39-0.35,0.45
						C304.225,449.006,298.348,450.734,294.587,450.734z M296.573,446.54c-1.901,0-3.494,0.475-4.113,1.829
						c-0.292,0.638-0.11,0.846-0.05,0.915c1.006,1.141,6.95,0.037,11.581-1.263C301.947,447.317,299.007,446.54,296.573,446.54z"/>
				</g>
			</g>
			<path style="fill:#415583;" d="M276.025,404.486c5.402,16.233-6.728,48.018-6.728,48.018s-118.226-23.129-146.98-35.706
				c-13.456-5.886-32.643-35.789,6.011-56.202C153.813,347.138,276.025,404.486,276.025,404.486z"/>
			<path style="fill:none;stroke:#3C1319;stroke-linecap:round;stroke-linejoin:round;stroke-miterlimit:10;" d="M187.721,369.042
				c41.663,13.558,88.304,35.445,88.304,35.445"/>
			<path style="fill:none;stroke:#3C1319;stroke-linecap:round;stroke-linejoin:round;stroke-miterlimit:10;" d="M269.296,452.505
				c0,0-61.227-11.978-106.274-23.382"/>
		</g>
		<path style="fill:none;stroke:#3C1319;stroke-linecap:round;stroke-linejoin:round;stroke-miterlimit:10;" d="M189.931,272.564
			c-2.547,18.586-4.336,37.71-5.734,57.109"/>
		<path style="fill:none;stroke:#3C1319;stroke-linecap:round;stroke-linejoin:round;stroke-miterlimit:10;" d="M316.036,272.564
			c0,0,5.971,44.828,7.079,61.99"/>
		
			<ellipse transform="matrix(0.1503 -0.9886 0.9886 0.1503 126.5199 319.8295)" style="fill:#FFB85A;" cx="249.318" cy="86.313" rx="5.111" ry="64.089"/>
		<g>
			<defs>
				<path id="SVGID_1_" d="M312.679,95.944c0.424-2.79-27.6-9.364-62.593-14.683c-34.993-5.319-63.705-7.369-64.129-4.578
					l-15.275,13.812l-8.408,42.742l8.408,34.122l15.275,21.257l23.956,10.659l23.377,2.464l50.994-4.986l29.198-17.941
					l17.058-43.273L312.679,95.944z"/>
			</defs>
			<clipPath id="SVGID_00000060742338081469083280000005103586462586370186_">
				<use xlink:href="#SVGID_1_"  style="overflow:visible;"/>
			</clipPath>
			<g style="clip-path:url(#SVGID_00000060742338081469083280000005103586462586370186_);">
				<g>
					<g>
						<path style="fill:#3C1319;" d="M312.932,100.392c0,0,4.029,40.582-9.729,57.535c-13.758,16.953-23.83,22.081-41.468,24.835
							c-17.639,2.754-66.93-6.628-72.549-17.397c-5.619-10.769-14.598-43.675-8.206-65.337
							C187.372,78.365,312.932,100.392,312.932,100.392z"/>
						<path style="fill:#FFAF88;" d="M191.071,94.446c0,0-1.091,23.197-1.14,50.68c-0.039,22.249,17.72,44.044,44.882,45.835
							c25.529,1.683,52.065-8.569,60.059-44.371c7.993-35.802,2.4-65.121-30.086-73.111C232.3,65.49,199.87,66.838,191.071,94.446z"
							/>
						<path style="fill:none;stroke:#3C1319;stroke-linecap:round;stroke-linejoin:round;stroke-miterlimit:10;" d="
							M232.335,157.599c1.379,0.312,2.885,0.467,4.445,0.467c5.423,0,11.489-1.873,15.06-5.527"/>
						<path style="fill:none;stroke:#3C1319;stroke-linecap:round;stroke-linejoin:round;stroke-miterlimit:10;" d="
							M236.282,115.851c3.806,36.92-8.18,16.693-8.18,26.558c0,3.686,3.877,5.345,7.36,5.345c0.73,0,1.442-0.073,2.097-0.215"/>
						<g>
							<path style="fill:#E09F25;" d="M228.749,86.895c0.14-0.193,0.232-0.301,0.232-0.301S228.897,86.705,228.749,86.895z"/>
						</g>
						<path style="fill:#FFAF88;" d="M283.253,161.251l5.989-20.883c0,0,19.155-6.944,20.13,12.703
							C310.347,172.718,289.706,173.692,283.253,161.251z"/>
						<path style="fill:#3C1319;" d="M277.318,124.943c0,0,4.357-4.969-4.838-11.195c-9.195-6.226-12.429-4.862-13.924-1.755
							c-1.364,2.835,0.739,7.088,5.958,10.45C270.778,126.48,274.953,127.799,277.318,124.943z"/>
						<path style="fill:#3C1319;" d="M201.462,120.115c0,0-3.297-5.727,6.94-10.028c10.238-4.301,13.142-2.329,13.998,1.011
							c0.782,3.047-2.115,6.805-7.892,9.078C207.573,122.904,203.221,123.379,201.462,120.115z"/>
						<g>
							<path style="fill:#3C1319;" d="M289.966,162.398c0.055,0,0.11-0.011,0.163-0.035c0.198-0.09,0.286-0.324,0.196-0.521
								c-0.043-0.096-4.233-9.544,2.36-13.93c2.316-1.541,4.6-2.079,6.793-1.602c3.783,0.826,6.057,4.442,6.08,4.478
								c0.115,0.185,0.357,0.242,0.541,0.128c0.185-0.114,0.243-0.356,0.129-0.541c-0.099-0.16-2.464-3.931-6.576-4.833
								c-2.41-0.525-4.9,0.049-7.404,1.715c-7.153,4.758-2.687,14.81-2.641,14.912C289.674,162.312,289.817,162.398,289.966,162.398
								z"/>
						</g>
						<g>
							<path style="fill:#3C1319;" d="M299.672,154.706c0.12,0,0.238-0.054,0.316-0.158c0.13-0.174,0.094-0.421-0.08-0.551
								c-0.065-0.049-6.666-4.878-11.573,0.026c-0.154,0.154-0.155,0.403-0.001,0.557c0.154,0.154,0.403,0.154,0.557,0.001
								c4.428-4.425,10.485,0.004,10.545,0.048C299.507,154.681,299.59,154.706,299.672,154.706z"/>
						</g>
						<g>
							<g>
								<path style="fill:#3C1319;" d="M212.696,143.816c-0.371,0-0.756-0.019-1.158-0.06c-7.493-0.75-8.16-7.622-8.166-7.692
									c-0.023-0.266,0.176-0.5,0.441-0.523c0.29-0.038,0.501,0.174,0.526,0.441c0.021,0.25,0.619,6.14,7.296,6.809
									c6.646,0.655,8.137-4.991,8.197-5.233c0.066-0.26,0.331-0.413,0.588-0.355c0.259,0.064,0.418,0.326,0.356,0.586
									C220.76,137.853,219.227,143.816,212.696,143.816z"/>
							</g>
						</g>
						<g>
							<g>
								<path style="fill:#3C1319;" d="M261.905,143.816c-6.53,0-8.064-5.963-8.079-6.027c-0.062-0.26,0.097-0.522,0.356-0.586
									c0.255-0.053,0.522,0.095,0.588,0.355c0.06,0.242,1.541,5.884,8.197,5.233c6.7-0.672,7.29-6.747,7.296-6.808
									c0.021-0.268,0.261-0.463,0.524-0.443c0.267,0.023,0.466,0.257,0.443,0.524c-0.006,0.069-0.673,6.941-8.166,7.692
									C262.661,143.797,262.274,143.816,261.905,143.816z"/>
							</g>
						</g>
						<path style="fill:#FFAF88;" d="M197.774,156.836l0.163-21.724c0,0-16.408-12.079-22.902,6.489
							C168.543,160.169,188.065,166.942,197.774,156.836z"/>
						<g>
							<path style="fill:#3C1319;" d="M191.011,156.036c-0.052-0.015-0.102-0.042-0.147-0.08c-0.164-0.142-0.182-0.391-0.04-0.555
								c0.068-0.079,6.76-7.957,1.677-14.029c-1.786-2.133-3.824-3.295-6.062-3.458c-3.862-0.278-7.066,2.547-7.099,2.575
								c-0.163,0.145-0.41,0.131-0.555-0.03c-0.146-0.162-0.132-0.411,0.029-0.556c0.14-0.125,3.475-3.074,7.674-2.775
								c2.46,0.178,4.686,1.433,6.616,3.739c5.514,6.588-1.612,14.966-1.685,15.05C191.315,156.037,191.154,156.078,191.011,156.036
								z"/>
						</g>
						<g>
							<path style="fill:#3C1319;" d="M183.877,145.913c-0.115-0.034-0.213-0.12-0.259-0.241c-0.075-0.205,0.029-0.431,0.233-0.507
								c0.077-0.029,7.774-2.792,11.093,3.299c0.104,0.191,0.034,0.431-0.157,0.534c-0.191,0.104-0.43,0.034-0.534-0.157
								c-2.995-5.497-10.058-2.962-10.128-2.937C184.042,145.936,183.956,145.937,183.877,145.913z"/>
						</g>
						<path style="opacity:0.33;fill:#FFAF88;" d="M254.632,160.31c0.738,3.742,7.016,5.655,14.023,4.273
							c7.007-1.381,12.089-5.534,11.351-9.276c-0.738-3.741-7.016-5.655-14.023-4.273S253.894,156.568,254.632,160.31z"/>
						<path style="opacity:0.33;fill:#FFAF88;" d="M222.469,159.561c-0.911,3.703-7.271,5.322-14.207,3.616
							c-6.935-1.706-11.818-6.091-10.907-9.794c0.911-3.703,7.271-5.322,14.206-3.616
							C218.497,151.473,223.38,155.858,222.469,159.561z"/>
						<path style="fill:#3C1319;" d="M216.24,55.688c25.5-4.594,49.482,5.59,58.409,10.056c-0.656-5.328,1.9-11.436,3.682-11.394
							c2.357,0.055,1.62,10.426,1.34,13.594c0.089,0.018,0.184,0.038,0.281,0.059c1.059-2.338,4.257-8.557,7.393-6.205
							c2.135,1.601-0.549,4.819-3.343,7.355c8.175,2.849,27.195,8.457,28.93,31.238c2.057,27.001-10.005,39.437-10.005,39.437
							s-3.48,0.846-16.227-4.261c-3.852-1.543-22.187-13.126-27.366-38.453c-16.106,25.279-53.329,31.102-71.942,26.902
							c-9.016-2.034-5.825,7.58-9.06-9.787C175.096,96.863,183.99,61.499,216.24,55.688z"/>
						<g>
							<g>
								<path style="fill:#FFFFFF;" d="M202.218,164.824c-13.119-0.507-23.38-11.593-22.873-24.713
									c0.507-13.12,11.594-23.381,24.713-22.873c13.119,0.507,23.38,11.594,22.873,24.713
									C226.424,155.071,215.338,165.332,202.218,164.824z M204.01,118.503c-12.422-0.48-22.919,9.235-23.4,21.658
									c-0.48,12.422,9.235,22.919,21.657,23.399c12.422,0.48,22.919-9.235,23.4-21.657
									C226.147,129.48,216.432,118.983,204.01,118.503z"/>
							</g>
							<g>
								<path style="fill:#FFFFFF;" d="M267.266,167.34c-13.119-0.507-23.38-11.594-22.873-24.713
									c0.507-13.119,11.594-23.38,24.713-22.873c13.119,0.507,23.38,11.594,22.872,24.713
									C291.472,157.586,280.385,167.847,267.266,167.34z M269.057,121.018c-12.422-0.481-22.919,9.235-23.4,21.657
									c-0.48,12.422,9.236,22.919,21.658,23.399c12.422,0.481,22.919-9.235,23.399-21.657
									C291.195,131.996,281.479,121.499,269.057,121.018z"/>
							</g>
							<g>
								<path style="fill:#FFFFFF;" d="M245.128,139.97c-0.109-0.004-0.217-0.037-0.316-0.099c-8.85-5.654-18.23-0.759-18.325-0.709
									c-0.308,0.164-0.692,0.047-0.856-0.26c-0.165-0.308-0.048-0.691,0.26-0.857c0.1-0.052,10.138-5.286,19.603,0.758
									c0.294,0.189,0.381,0.58,0.193,0.874C245.561,139.874,245.346,139.978,245.128,139.97z"/>
							</g>
						</g>
					</g>
				</g>
			</g>
		</g>
		
			<ellipse transform="matrix(0.1503 -0.9886 0.9886 0.1503 126.5199 319.8295)" style="fill:#6B222C;" cx="249.318" cy="86.313" rx="5.111" ry="64.089"/>
		
			<ellipse transform="matrix(0.1503 -0.9886 0.9886 0.1503 126.5199 319.8295)" style="fill:#6B222C;" cx="249.318" cy="86.313" rx="5.111" ry="64.089"/>
		<g>
			<defs>
				<path id="SVGID_00000085212503996248597990000004083355755867276177_" d="M355.873,0H168.704l-25.626,49.881l42.878,26.802
					c-0.424,2.79,27.6,9.364,62.593,14.683c34.993,5.319,63.705,7.369,64.129,4.578c17.115,10.718,39.415-1.95,64.631-27.766
					L355.873,0z"/>
			</defs>
			<clipPath id="SVGID_00000178170653172861429510000005511614698661743265_">
				<use xlink:href="#SVGID_00000085212503996248597990000004083355755867276177_"  style="overflow:visible;"/>
			</clipPath>
			<g style="clip-path:url(#SVGID_00000178170653172861429510000005511614698661743265_);">
				<path style="fill:#538243;" d="M208.621,88.196c-3.282-1.22-6.71-2.243-9.799-6.696c-3.088-4.453-3.216-2.014-9.569-10.19
					c-6.353-8.176-8.783-17.254-8.783-17.254s10.814-3.862,15.488-1.494s4.903-1.127,12.241,2.349
					c7.338,3.476,10.456,2.071,16.359,8.286s8.276,22.533,8.276,22.533C228.518,89.118,220.462,92.6,208.621,88.196z"/>
				<g>
					<path style="fill:none;stroke:#3C1319;stroke-miterlimit:10;" d="M241.282,92.344c0,0-36.815-30.432-52.708-34.029"/>
					<line style="fill:none;stroke:#3C1319;stroke-miterlimit:10;" x1="193.785" y1="68.225" x2="205.29" y2="66.174"/>
					<line style="fill:none;stroke:#3C1319;stroke-miterlimit:10;" x1="212.361" y1="60.789" x2="216.466" y2="73.548"/>
					<line style="fill:none;stroke:#3C1319;stroke-miterlimit:10;" x1="206.979" y1="80.911" x2="222.346" y2="77.734"/>
					<line style="fill:none;stroke:#3C1319;stroke-miterlimit:10;" x1="221.968" y1="66.966" x2="226.807" y2="80.899"/>
				</g>
			</g>
			<g style="clip-path:url(#SVGID_00000178170653172861429510000005511614698661743265_);">
				<path style="fill:#538243;" d="M322.47,95.803c3.373-0.939,6.876-1.669,10.329-5.845c3.453-4.176,3.375-1.736,10.395-9.346
					c7.02-7.611,10.208-16.451,10.208-16.451s-10.449-4.761-15.306-2.796c-4.857,1.964-4.791-1.537-12.396,1.308
					c-7.605,2.844-10.594,1.181-17,6.876s-10.148,21.754-10.148,21.754C302.566,95.042,310.299,99.191,322.47,95.803z"/>
				<g>
					<path style="fill:none;stroke:#3C1319;stroke-miterlimit:10;" d="M289.575,97.18c0,0,39.252-27.217,55.392-29.459"/>
					<line style="fill:none;stroke:#3C1319;stroke-miterlimit:10;" x1="338.938" y1="77.154" x2="327.647" y2="74.14"/>
					<line style="fill:none;stroke:#3C1319;stroke-miterlimit:10;" x1="321.055" y1="68.177" x2="315.889" y2="80.545"/>
					<line style="fill:none;stroke:#3C1319;stroke-miterlimit:10;" x1="324.721" y1="88.682" x2="309.677" y2="84.22"/>
					<line style="fill:none;stroke:#3C1319;stroke-miterlimit:10;" x1="310.962" y1="73.522" x2="304.964" y2="86.997"/>
				</g>
			</g>
			<g style="clip-path:url(#SVGID_00000178170653172861429510000005511614698661743265_);">
				<path style="fill:#538243;" d="M295.268,54.025c0.372-2.929,0.949-5.89-1.169-9.939c-2.118-4.049-0.247-3.19-3.869-11.134
					c-3.623-7.944-9.453-13.31-9.453-13.31s-7.115,6.567-7.174,10.985c-0.06,4.417-2.76,3.222-3.033,10.063
					s-2.543,8.621-0.209,15.461s13.595,14.996,13.595,14.996C288.174,69.249,293.925,64.593,295.268,54.025z"/>
				<g>
					<path style="fill:none;stroke:#3C1319;stroke-miterlimit:10;" d="M285.591,80.046c0,0-8.333-39.405-4.803-52.684"/>
					<line style="fill:none;stroke:#3C1319;stroke-miterlimit:10;" x1="286.152" y1="35.13" x2="280.12" y2="42.922"/>
					<line style="fill:none;stroke:#3C1319;stroke-miterlimit:10;" x1="273.331" y1="46.099" x2="281.257" y2="54.156"/>
					<line style="fill:none;stroke:#3C1319;stroke-miterlimit:10;" x1="290.468" y1="49.948" x2="282.084" y2="60.185"/>
					<line style="fill:none;stroke:#3C1319;stroke-miterlimit:10;" x1="274.188" y1="55.691" x2="282.703" y2="64.756"/>
				</g>
			</g>
			<g style="clip-path:url(#SVGID_00000178170653172861429510000005511614698661743265_);">
				<g>
					<path style="fill:#A3CB95;" d="M303.485,63.496c0.034-0.44,19.49-7.125,26.906-11.681c7.39-5.197,13.165-11.385,13.205-11.414
						c0.059-0.571-21.991,5.622-28.076,11.651C309.373,57.236,303.473,63.483,303.485,63.496z"/>
					<path style="fill:#A3CB95;" d="M300.027,70.18c-0.453,0.153,2.136-22.429,8.774-31.608
						c5.814-9.222,16.616-18.118,16.648-18.028c0.047-0.003-4.535,6.501-8.614,14.145c-4.236,7.609-7.97,16.357-9.856,20.044
						C302.985,62.099,300.011,70.182,300.027,70.18z"/>
					<path style="fill:#A3CB95;" d="M354.268,19.304c-0.127-0.004-10.976,9.714-21.08,17.328
						c-7.892,5.108-23.594,17.718-23.435,18.028c-1.252,2.273,4.341-13.716,21.398-26.967
						C338.591,21.632,354.336,19.098,354.268,19.304z"/>
					<path style="fill:#A3CB95;" d="M295.861,77.558c-0.08,0.112,3.261-8.369,14.82-10.908c11.324-2.381,16.159-8.214,16.235-8.305
						c-0.078,0.268-4.098,8.097-18.724,15.958c-12.377,7.055-16.342,12.773-16.36,12.605
						C293.066,83.74,294.41,80.621,295.861,77.558z"/>
					<path style="fill:#A3CB95;" d="M292.019,87.555c-0.111-0.041,2.874-13.662,4.119-23.534c0.985-9.885,1.464-20.594,3.423-29.432
						c0.02-0.217-10.722,15.462-10.301,33.648C289.364,78.661,292.028,87.575,292.019,87.555z"/>
				</g>
				<path style="fill:none;stroke:#3C1319;stroke-miterlimit:10;" d="M318.688,54.26c-5.159,2.672-10.245,5.75-15.203,9.236
					c0.97-5.591,2.307-11.226,4.029-16.862"/>
				<path style="fill:none;stroke:#3C1319;stroke-miterlimit:10;" d="M303.592,74.006c-3.737,3.067-7.37,6.398-10.867,9.992
					c-0.434-5.298-0.565-10.717-0.372-16.228"/>
				<path style="fill:none;stroke:#3C1319;stroke-miterlimit:10;" d="M341.539,26.133c0.577,0.183-16.404,8.95-30.422,27.117
					c-14.499,17.453-26.036,44.305-25.682,64.162"/>
			</g>
			<g style="clip-path:url(#SVGID_00000178170653172861429510000005511614698661743265_);">
				<g>
					<path style="fill:#A3CB95;" d="M226.712,51.725c0.028-0.428-17.758-9.56-24.258-14.972
						c-6.387-6.026-11.082-12.779-11.117-12.813c0.022-0.557,20.372,8.462,25.388,15.106
						C221.917,44.887,226.725,51.715,226.712,51.725z"/>
					<path style="fill:#A3CB95;" d="M229.11,58.635c0.414,0.21,1.06-21.871-4.05-31.621c-4.312-9.678-13.467-19.734-13.509-19.653
						c-0.045-0.01,3.459,6.883,6.322,14.802c3.018,7.907,5.395,16.84,6.696,20.649C227.386,50.451,229.125,58.639,229.11,58.635z"/>
					<path style="fill:#A3CB95;" d="M184.002,2.166c0.123,0.014,9.208,10.868,17.87,19.595c6.882,6.009,20.234,20.32,20.037,20.595
						c0.889,2.361-2.27-13.796-16.838-28.911C198.758,6.582,183.965,1.958,184.002,2.166z"/>
					<path style="fill:#A3CB95;" d="M232.093,66.31c0.061,0.119-1.974-8.503-12.74-12.55c-10.561-3.863-14.402-10.145-14.463-10.243
						c0.038,0.269,2.817,8.358,15.794,17.95c10.925,8.505,13.945,14.556,13.986,14.397C233.922,72.644,233.063,69.458,232.093,66.31
						z"/>
					<path style="fill:#A3CB95;" d="M234.4,76.46c0.112-0.024-0.867-13.54-0.693-23.209c0.425-9.645,1.452-20.012,0.795-28.785
						c0.011-0.211,8.166,16.361,5.235,33.796C238.188,68.273,234.388,76.478,234.4,76.46z"/>
				</g>
				<path style="fill:none;stroke:#3C1319;stroke-miterlimit:10;" d="M213.371,40.73c4.591,3.287,9.056,6.953,13.341,10.995
					c-0.156-5.513-0.66-11.118-1.533-16.779"/>
				<path style="fill:none;stroke:#3C1319;stroke-miterlimit:10;" d="M225.15,61.82c3.168,3.469,6.2,7.177,9.065,11.12
					c1.153-5.035,2.032-10.23,2.611-15.557"/>
				<path style="fill:none;stroke:#3C1319;stroke-miterlimit:10;" d="M195.297,10.502c-0.58,0.096,14.536,10.887,25.497,30.308
					c11.523,18.801,18.89,46.231,15.792,65.282"/>
			</g>
			<g style="clip-path:url(#SVGID_00000178170653172861429510000005511614698661743265_);">
				<g>
					<path style="fill:#538243;" d="M212.269,55.22c-0.164-0.35-18.142,0.178-25.613-1.263c-7.648-1.974-14.28-5.257-14.322-5.268
						c-0.224-0.449,19.725-2.178,26.561,0.879C205.522,51.914,212.275,55.206,212.269,55.22z"/>
					<path style="fill:#538243;" d="M217.158,59.623c0.418-0.015-8.661-17.692-16.92-23.155c-7.599-5.753-19.179-9.701-19.177-9.618
						c-0.039,0.012,5.714,3.921,11.407,8.917c5.811,4.919,11.562,10.926,14.241,13.361C212.247,53.924,217.172,59.62,217.158,59.623
						z"/>
					<path style="fill:#538243;" d="M157.101,34.718c0.103-0.042,11.974,4.565,22.587,7.68c8.031,1.747,24.765,7.224,24.729,7.527
						c1.725,1.474-7.779-9.883-25.819-15.468C170.644,31.79,156.981,34.57,157.101,34.718z"/>
					<path style="fill:#538243;" d="M222.841,64.375c0.1,0.067-5.247-5.842-15.486-4.356c-9.998,1.542-15.752-1.74-15.843-1.791
						c0.147,0.196,5.848,5.362,20.237,7.285c12.301,1.957,17.307,5.414,17.27,5.27C227.032,68.571,224.972,66.434,222.841,64.375z"
						/>
					<path style="fill:#538243;" d="M229.065,71.37c0.078-0.068-6.562-10.291-10.623-17.984
						c-3.853-7.783-7.545-16.398-11.872-23.024c-0.083-0.171,13.538,9.345,18.799,24.354
						C228.496,63.275,229.064,71.389,229.065,71.37z"/>
				</g>
				<path style="fill:none;stroke:#3C1319;stroke-miterlimit:10;" d="M196.984,52.35c5.044,0.596,10.154,1.546,15.285,2.87
					c-2.517-4.275-5.347-8.473-8.493-12.554"/>
				<path style="fill:none;stroke:#3C1319;stroke-miterlimit:10;" d="M215.421,63.852c4.002,1.357,8.001,2.963,11.97,4.826
					c-1.278-4.468-2.841-8.942-4.698-13.391"/>
				<path style="fill:none;stroke:#3C1319;stroke-miterlimit:10;" d="M169.619,36.382c-0.416,0.328,16.179,2.266,33.248,12.809
					c17.242,9.81,34.956,28.222,40.787,44.578"/>
			</g>
			<g style="clip-path:url(#SVGID_00000178170653172861429510000005511614698661743265_);">
				<path style="fill:#EF8181;" d="M292.266,81.435c-0.204,0.451-0.451,0.873-0.727,1.294c0.044,0.32,0.102,0.64,0.145,0.96
					c0.64,4.202,0.887,8.826-1.207,12.475c-1.57,2.733-4.507,4.638-7.648,4.929c-2.384,3.01-5.787,5.22-9.538,5.947
					c-3.766,0.742-7.779,0.087-11.108-1.788c-2.225,1.788-5.307,2.588-8.084,1.905c0.291,1.701,0.174,3.417-0.247,5.089
					c-0.189,0.771-0.625,1.658-1.41,1.658c-0.582,0-1.018-0.48-1.352-0.945c-2.792-3.664-4.624-8.055-5.278-12.62
					c-3.097,1.192-6.935,0.174-9.058-2.37c-1.934,0.189-4.057-0.756-5.321-2.239c-0.916-1.09-1.41-2.515-1.396-3.94
					c0-0.523,0.073-1.047,0.204-1.541c-0.378,0-0.756,0-1.12-0.029c-1.89-0.146-3.62-0.8-4.885-2.254
					c-1.352-1.57-2.094-3.853-1.948-5.961c0-0.247,0.029-0.509,0.073-0.742c-1.032,0.378-2.108,0.582-3.199,0.596h-0.015
					c-3.722,0.087-7.546-1.817-9.829-4.813c-2.821-3.737-2.981-9.276-0.436-13.202c0.102-0.16,0.204-0.305,0.305-0.451
					c-0.233-0.509-0.422-1.032-0.567-1.585v-0.015c-0.698-2.603-0.553-5.569,0.523-7.953c1.163-2.544,3.3-4.595,5.859-5.699
					c0.363-0.146,0.727-0.276,1.09-0.393c0.102-0.349,0.204-0.64,0.334-0.974c-0.015-0.015-0.015-0.029,0-0.044
					c0.974-2.748,2.806-5.205,5.234-6.805c2.428-1.614,5.365-2.413,8.258-2.239h0.015c0.363,0.015,0.712,0.043,1.076,0.087
					c0.247-0.247,0.509-0.48,0.771-0.712c0.015-0.015,0.015-0.015,0.015-0.015c3.606-3.126,8.331-4.943,13.1-5.132
					c4.798-0.174,9.64,1.338,13.493,4.246c0.247,0.189,0.509,0.393,0.756,0.596c0.611-0.102,1.207-0.189,1.817-0.233
					c1.701-0.16,3.402-0.073,5.06,0.363c1.847,0.494,3.591,1.599,4.58,3.199c0.218,0.349,0.407,0.727,0.552,1.134h0.509
					c4.086,0.044,8.273,1.803,11.166,4.653c2.893,2.864,4.624,6.906,4.711,10.992v0.48c0.523,0.378,1.003,0.814,1.439,1.294
					c2.399,2.646,3.359,6.674,2.326,10.09C293.909,72.319,294.229,77.436,292.266,81.435z"/>
				<g>
					<path style="fill:#D45F5F;" d="M216.253,66.299c-2.646-0.102-5.22-0.96-7.372-2.457c0.102-0.16,0.204-0.305,0.305-0.451
						c-0.233-0.509-0.422-1.032-0.567-1.585c2.108,1.832,4.813,2.937,7.633,3.039C217.184,64.874,217.184,66.328,216.253,66.299z"/>
					<path style="fill:#D45F5F;" d="M217.257,54.464c-1.338-1.861-2.094-4.071-2.254-6.325c0.363-0.146,0.727-0.276,1.09-0.393
						c0.102-0.349,0.204-0.64,0.334-0.974c-0.087,2.457,0.64,4.929,2.079,6.95C219.06,54.493,217.795,55.22,217.257,54.464z"/>
					<path style="fill:#D45F5F;" d="M230.633,47.078c0.218,0.916-1.178,1.294-1.41,0.393c-0.829-3.257-0.538-6.703,0.698-9.785
						h0.015c0.363,0.015,0.712,0.043,1.076,0.087c0.247-0.247,0.509-0.48,0.771-0.712C230.226,40.113,229.775,43.705,230.633,47.078
						z"/>
					<path style="fill:#D45F5F;" d="M260.963,36.522c-3.068,1.12-5.54,3.693-6.485,6.834c-0.276,0.901-1.672,0.524-1.396-0.378
						c0.858-2.85,2.792-5.292,5.307-6.819c0.247,0.189,0.509,0.393,0.756,0.596C259.756,36.653,260.352,36.566,260.963,36.522z"/>
					<path style="fill:#D45F5F;" d="M271.664,41.218c-2.675,0.945-5.06,2.675-6.717,4.987c-0.233,0.32-0.64,0.48-1.003,0.262
						c-0.305-0.189-0.494-0.683-0.262-1.003c1.745-2.413,4.158-4.304,6.921-5.38c0.218,0.349,0.407,0.727,0.552,1.134H271.664z"/>
					<path style="fill:#D45F5F;" d="M288.98,58.637c-2.37-0.596-4.856-0.567-7.226,0.116c-0.901,0.262-1.279-1.134-0.393-1.396
						c2.006-0.581,4.115-0.742,6.179-0.494v0.48C288.064,57.721,288.544,58.157,288.98,58.637z"/>
					<path style="fill:#D45F5F;" d="M276.036,86.631c-6.075,0.597-12.088-0.4-18.07-1.379c5.542-1.256,10.801-3.639,15.387-7.015
						c0.746-0.549,0.021-1.811-0.734-1.255c-5.332,3.925-11.521,6.476-18.07,7.451c-0.182,0.027-0.3,0.112-0.385,0.216
						c-5.431-0.835-11.259-1.514-16.666-0.338c1.952-1.757,3.664-3.762,5.085-5.987c0.505-0.791-0.753-1.521-1.255-0.734
						c-1.737,2.72-3.952,5.141-6.527,7.091c-0.178,0.135-0.296,0.32-0.335,0.522c-2.613,1.079-4.875,3.021-5.616,5.856
						c-0.237,0.906,1.165,1.292,1.402,0.386c1.11-4.245,5.513-5.684,9.861-6.106c0.082,0.136,0.213,0.249,0.417,0.298
						c2.452,0.581,4.679,1.844,6.431,3.657c0.651,0.674,1.679-0.355,1.028-1.028c-1.259-1.303-2.775-2.33-4.418-3.082
						c0.903,0,1.764,0.024,2.535,0.058c6.421,0.283,12.707,1.778,19.071,2.56c3.605,0.443,7.239,0.641,10.86,0.285
						C276.958,87.994,276.968,86.539,276.036,86.631z"/>
					<path style="fill:#D45F5F;" d="M227.202,76.186c-0.96,2.457-2.719,4.493-4.914,5.816c0-0.247,0.029-0.509,0.073-0.742
						c-1.032,0.378-2.108,0.582-3.199,0.596c2.952-0.901,5.51-3.17,6.645-6.049c0.131-0.363,0.48-0.625,0.887-0.509
						C227.042,75.401,227.347,75.822,227.202,76.186z"/>
					<path style="fill:#D45F5F;" d="M284.875,80c-0.197-0.872-0.441-1.732-0.714-2.582c0.102-0.169,0.139-0.38,0.109-0.592
						c-0.498-3.456-0.08-6.991,1.131-10.26c0.325-0.879-1.079-1.258-1.402-0.387c-0.887,2.394-1.327,4.906-1.358,7.435
						c-1.85-3.893-4.487-7.414-7.741-10.24c-0.685-0.595-1.398-1.154-2.128-1.691c0.047-0.161,0.048-0.341-0.044-0.529
						c-1.52-3.11-1.88-6.704-1.038-10.058c0.228-0.908-1.174-1.295-1.402-0.387c-0.805,3.207-0.599,6.566,0.537,9.643
						c-1.331-0.841-2.719-1.591-4.159-2.232c-3.254-1.449-6.656-2.242-10.148-2.876c-3.936-0.715-8.024-1.375-11.535-3.41
						c-3.278-1.9-5.929-5.188-5.844-9.131c0.02-0.936-1.434-0.936-1.454,0c-0.128,5.894,4.558,9.782,9.616,11.783
						c-7.87,0.809-15.472,3.632-21.926,8.241c-0.755,0.539-0.03,1.801,0.734,1.255c7.002-5,15.351-7.898,23.951-8.258
						c0.217-0.009,0.379-0.099,0.495-0.225c2.72,0.686,5.501,1.093,8.246,1.667c-4.625,1.679-8.778,4.568-11.925,8.368
						c-0.592,0.716,0.431,1.75,1.028,1.028c3.502-4.229,8.233-7.288,13.538-8.713c0.021-0.006,0.033-0.019,0.052-0.026
						c2.75,0.769,5.393,1.856,7.855,3.32c5.628,3.345,10.149,8.445,12.635,14.518c1.243,3.036,2.09,6.371,2.122,9.664
						c0.034,3.442-1.311,6.41-4.359,8.15c-3.463,1.977-7.572,1.821-11.409,1.432c-4.151-0.421-8.332-1.075-12.446-0.023
						c-0.906,0.232-0.522,1.634,0.387,1.402c2.932-0.749,5.923-0.569,8.918-0.258c-2.295,0.809-4.413,2.101-6.182,3.785
						c-0.679,0.646,0.35,1.673,1.028,1.028c2.258-2.148,5.104-3.564,8.169-4.112c0.19-0.034,0.338-0.166,0.429-0.333
						c3.352,0.331,6.684,0.448,9.92-0.773c2.75-1.038,5.161-2.948,6.256-5.739C286.035,86.771,285.593,83.178,284.875,80z"/>
					<path style="fill:#D45F5F;" d="M291.539,82.729c0.044,0.32,0.102,0.64,0.145,0.96c-0.843-2.326-2.457-4.318-4.609-5.612
						c-0.8-0.48-0.058-1.73,0.742-1.25c1.861,1.105,3.402,2.719,4.449,4.609C292.063,81.885,291.816,82.307,291.539,82.729z"/>
				</g>
			</g>
		</g>
		<g>
			<g>
				
					<ellipse transform="matrix(0.5686 -0.8226 0.8226 0.5686 59.5837 289.8137)" style="fill:#FFFFFF;" cx="306.111" cy="88.097" rx="4.542" ry="1.551"/>
				
					<ellipse transform="matrix(0.5686 -0.8226 0.8226 0.5686 45.6928 288.113)" style="fill:#FFFFFF;" cx="297.544" cy="100.491" rx="4.542" ry="1.551"/>
				
					<ellipse transform="matrix(0.5686 -0.8226 0.8226 0.5686 53.4886 282.0179)" style="fill:#FFFFFF;" cx="295.631" cy="90.011" rx="1.551" ry="4.542"/>
				
					<ellipse transform="matrix(0.5686 -0.8226 0.8226 0.5686 51.788 295.9088)" style="fill:#FFFFFF;" cx="308.025" cy="98.578" rx="1.551" ry="4.542"/>
				
					<ellipse transform="matrix(0.0811 -0.9967 0.9967 0.0811 189.6481 395.5227)" style="fill:#FFFFFF;" cx="309.336" cy="94.905" rx="1.551" ry="4.542"/>
				
					<ellipse transform="matrix(0.0811 -0.9967 0.9967 0.0811 177.0679 379.4323)" style="fill:#FFFFFF;" cx="294.32" cy="93.683" rx="1.551" ry="4.542"/>
				
					<ellipse transform="matrix(0.0811 -0.9967 0.9967 0.0811 191.4032 381.1873)" style="fill:#FFFFFF;" cx="302.439" cy="86.786" rx="4.542" ry="1.551"/>
				
					<ellipse transform="matrix(0.0811 -0.9967 0.9967 0.0811 175.3128 393.7676)" style="fill:#FFFFFF;" cx="301.217" cy="101.803" rx="4.542" ry="1.551"/>
				
					<ellipse transform="matrix(0.9037 -0.4281 0.4281 0.9037 -9.2752 140.892)" style="fill:#FFFFFF;" cx="308.636" cy="91.069" rx="4.542" ry="1.551"/>
				
					<ellipse transform="matrix(0.9037 -0.4281 0.4281 0.9037 -13.3471 135.6839)" style="fill:#FFFFFF;" cx="295.02" cy="97.519" rx="4.542" ry="1.551"/>
				
					<ellipse transform="matrix(0.9037 -0.4281 0.4281 0.9037 -8.7071 136.252)" style="fill:#FFFFFF;" cx="298.603" cy="87.486" rx="1.551" ry="4.542"/>
				
					<ellipse transform="matrix(0.9037 -0.4281 0.4281 0.9037 -13.9152 140.3239)" style="fill:#FFFFFF;" cx="305.053" cy="101.102" rx="1.551" ry="4.542"/>
			</g>
			<circle style="fill:#C34644;" cx="301.828" cy="94.294" r="5.068"/>
		</g>
		<g>
			<g>
				
					<ellipse transform="matrix(0.5686 -0.8226 0.8226 0.5686 35.411 201.5748)" style="fill:#FFFFFF;" cx="209.895" cy="67.025" rx="4.125" ry="1.409"/>
				
					<ellipse transform="matrix(0.5686 -0.8226 0.8226 0.5686 22.796 200.0303)" style="fill:#FFFFFF;" cx="202.115" cy="78.281" rx="4.125" ry="1.409"/>
				
					<ellipse transform="matrix(0.5686 -0.8226 0.8226 0.5686 29.8757 194.4951)" style="fill:#FFFFFF;" cx="200.377" cy="68.763" rx="1.409" ry="4.125"/>
				
					<ellipse transform="matrix(0.5686 -0.8226 0.8226 0.5686 28.3313 207.1101)" style="fill:#FFFFFF;" cx="211.632" cy="76.543" rx="1.409" ry="4.125"/>
				
					<ellipse transform="matrix(0.0811 -0.9967 0.9967 0.0811 122.591 279.3906)" style="fill:#FFFFFF;" cx="212.823" cy="73.208" rx="1.409" ry="4.125"/>
				
					<ellipse transform="matrix(0.0811 -0.9967 0.9967 0.0811 111.1663 264.7781)" style="fill:#FFFFFF;" cx="199.186" cy="72.098" rx="1.409" ry="4.125"/>
				
					<ellipse transform="matrix(0.0811 -0.9967 0.9967 0.0811 124.1849 266.372)" style="fill:#FFFFFF;" cx="206.56" cy="65.834" rx="4.125" ry="1.409"/>
				
					<ellipse transform="matrix(0.0811 -0.9967 0.9967 0.0811 109.5724 277.7968)" style="fill:#FFFFFF;" cx="205.45" cy="79.472" rx="4.125" ry="1.409"/>
				
					<ellipse transform="matrix(0.9037 -0.4281 0.4281 0.9037 -9.4221 97.5481)" style="fill:#FFFFFF;" cx="212.187" cy="69.724" rx="4.125" ry="1.409"/>
				
					<ellipse transform="matrix(0.9037 -0.4281 0.4281 0.9037 -13.12 92.8184)" style="fill:#FFFFFF;" cx="199.822" cy="75.582" rx="4.125" ry="1.409"/>
				
					<ellipse transform="matrix(0.9037 -0.4281 0.4281 0.9037 -8.9062 93.3343)" style="fill:#FFFFFF;" cx="203.076" cy="66.47" rx="1.409" ry="4.125"/>
				
					<ellipse transform="matrix(0.9037 -0.4281 0.4281 0.9037 -13.6359 97.0322)" style="fill:#FFFFFF;" cx="208.933" cy="78.836" rx="1.409" ry="4.125"/>
			</g>
			<circle style="fill:#C34644;" cx="206.005" cy="72.653" r="4.603"/>
		</g>
		<g>
			<g>
				
					<ellipse transform="matrix(0.6445 -0.7646 0.7646 0.6445 50.0821 250.355)" style="fill:#FFFFFF;" cx="294.267" cy="71.32" rx="3.947" ry="1.348"/>
				
					<ellipse transform="matrix(0.6445 -0.7646 0.7646 0.6445 39.4276 247.4619)" style="fill:#FFFFFF;" cx="285.829" cy="81.331" rx="3.947" ry="1.348"/>
				
					<ellipse transform="matrix(0.6445 -0.7646 0.7646 0.6445 46.2014 243.5812)" style="fill:#FFFFFF;" cx="285.043" cy="72.107" rx="1.348" ry="3.947"/>
				
					<ellipse transform="matrix(0.6445 -0.7646 0.7646 0.6445 43.3083 254.2357)" style="fill:#FFFFFF;" cx="295.054" cy="80.545" rx="1.348" ry="3.947"/>
				
					<ellipse transform="matrix(0.1758 -0.9844 0.9844 0.1758 168.0874 355.7264)" style="fill:#FFFFFF;" cx="296.493" cy="77.477" rx="1.348" ry="3.947"/>
				
					<ellipse transform="matrix(0.1758 -0.9844 0.9844 0.1758 159.7312 341.1406)" style="fill:#FFFFFF;" cx="283.604" cy="75.175" rx="1.348" ry="3.947"/>
				
					<ellipse transform="matrix(0.1758 -0.9844 0.9844 0.1758 171.2022 344.2554)" style="fill:#FFFFFF;" cx="291.199" cy="69.881" rx="3.947" ry="1.348"/>
				
					<ellipse transform="matrix(0.1758 -0.9844 0.9844 0.1758 156.6165 352.6116)" style="fill:#FFFFFF;" cx="288.897" cy="82.77" rx="3.947" ry="1.348"/>
				
					<ellipse transform="matrix(0.9405 -0.3399 0.3399 0.9405 -7.5503 105.1005)" style="fill:#FFFFFF;" cx="296.205" cy="74.1" rx="3.947" ry="1.348"/>
				
					<ellipse transform="matrix(0.9405 -0.3399 0.3399 0.9405 -9.7965 101.1799)" style="fill:#FFFFFF;" cx="283.891" cy="78.551" rx="3.947" ry="1.348"/>
				
					<ellipse transform="matrix(0.9405 -0.3399 0.3399 0.9405 -6.7131 102.0171)" style="fill:#FFFFFF;" cx="287.823" cy="70.169" rx="1.348" ry="3.947"/>
				
					<ellipse transform="matrix(0.9405 -0.3399 0.3399 0.9405 -10.6337 104.2633)" style="fill:#FFFFFF;" cx="292.274" cy="82.483" rx="1.348" ry="3.947"/>
			</g>
			<circle style="fill:#C34644;" cx="290.048" cy="76.326" r="4.404"/>
		</g>
		<g>
			<g>
				
					<ellipse transform="matrix(0.6445 -0.7646 0.7646 0.6445 18.6382 200.8977)" style="fill:#FFFFFF;" cx="225.36" cy="80.406" rx="3.947" ry="1.348"/>
				
					<ellipse transform="matrix(0.6445 -0.7646 0.7646 0.6445 7.9837 198.0046)" style="fill:#FFFFFF;" cx="216.922" cy="90.417" rx="3.947" ry="1.348"/>
				
					<ellipse transform="matrix(0.6445 -0.7646 0.7646 0.6445 14.7575 194.1239)" style="fill:#FFFFFF;" cx="216.135" cy="81.192" rx="1.348" ry="3.947"/>
				
					<ellipse transform="matrix(0.6445 -0.7646 0.7646 0.6445 11.8644 204.7784)" style="fill:#FFFFFF;" cx="226.146" cy="89.63" rx="1.348" ry="3.947"/>
				
					<ellipse transform="matrix(0.1758 -0.9844 0.9844 0.1758 102.353 295.3806)" style="fill:#FFFFFF;" cx="227.585" cy="86.562" rx="1.348" ry="3.947"/>
				
					<ellipse transform="matrix(0.1758 -0.9844 0.9844 0.1758 93.9967 280.7948)" style="fill:#FFFFFF;" cx="214.696" cy="84.26" rx="1.348" ry="3.947"/>
				
					<ellipse transform="matrix(0.1758 -0.9844 0.9844 0.1758 105.4677 283.9096)" style="fill:#FFFFFF;" cx="222.292" cy="78.967" rx="3.947" ry="1.348"/>
				
					<ellipse transform="matrix(0.1758 -0.9844 0.9844 0.1758 90.882 292.2658)" style="fill:#FFFFFF;" cx="219.99" cy="91.856" rx="3.947" ry="1.348"/>
				
					<ellipse transform="matrix(0.9405 -0.3399 0.3399 0.9405 -14.742 82.2181)" style="fill:#FFFFFF;" cx="227.298" cy="83.186" rx="3.947" ry="1.348"/>
				
					<ellipse transform="matrix(0.9405 -0.3399 0.3399 0.9405 -16.9881 78.2975)" style="fill:#FFFFFF;" cx="214.984" cy="87.637" rx="3.947" ry="1.348"/>
				
					<ellipse transform="matrix(0.9405 -0.3399 0.3399 0.9405 -13.9047 79.1347)" style="fill:#FFFFFF;" cx="218.916" cy="79.255" rx="1.348" ry="3.947"/>
				
					<ellipse transform="matrix(0.9405 -0.3399 0.3399 0.9405 -17.8254 81.3809)" style="fill:#FFFFFF;" cx="223.366" cy="91.568" rx="1.348" ry="3.947"/>
			</g>
			<circle style="fill:#C34644;" cx="221.141" cy="85.411" r="4.404"/>
		</g>
	</g>
	<g>
		<path style="fill:#FFB85A;" d="M434.409,125.726l-1.545,11.243c1.011,0.139,2.065-0.031,2.949-0.552
			c0.975-0.569,2.139-0.833,3.34-0.668c3.093,0.425,5.185,3.464,4.381,6.578c-0.581,2.199-2.598,3.825-4.865,3.914
			c-1.596,0.059-2.99-0.556-3.967-1.563c-0.722-0.742-1.688-1.214-2.711-1.355l-1.547,11.255l11.241,1.545
			c-0.142,1.027-0.606,1.987-1.347,2.712c-1.006,0.983-1.63,2.37-1.568,3.967c0.088,2.27,1.719,4.29,3.918,4.862
			c3.118,0.811,6.149-1.285,6.574-4.38c0.165-1.203-0.097-2.36-0.664-3.332c-0.518-0.889-0.694-1.936-0.555-2.955l11.241,1.544
			l1.547-11.26c0.002,0.004,0.002,0.007,0.004,0.011h0c1.028,0.141,1.989,0.606,2.714,1.348c0.983,1.006,2.37,1.63,3.967,1.568
			c2.27-0.088,4.29-1.719,4.862-3.918c0.811-3.118-1.285-6.149-4.38-6.574c-1.203-0.165-2.36,0.097-3.332,0.664
			c-0.89,0.519-1.938,0.695-2.958,0.555c-0.003,0.003-0.004,0.006-0.007,0.01l1.547-11.255L434.409,125.726z"/>
		<path style="fill:#F57445;" d="M151.036,177.521l-8.203,7.842c0.705,0.738,1.636,1.26,2.653,1.402
			c1.117,0.161,2.193,0.678,3.031,1.555c2.158,2.257,1.905,5.937-0.661,7.876c-1.823,1.361-4.414,1.379-6.244,0.038
			c-1.287-0.946-1.995-2.296-2.134-3.692c-0.104-1.03-0.566-2-1.28-2.747l-8.212,7.85l7.841,8.202
			c-0.75,0.716-1.711,1.179-2.742,1.285c-1.399,0.144-2.75,0.842-3.696,2.131c-1.344,1.832-1.322,4.428,0.043,6.244
			c1.937,2.575,5.614,2.819,7.872,0.66c0.878-0.839,1.392-1.908,1.553-3.022c0.147-1.019,0.66-1.947,1.404-2.659l7.84,8.201
			l8.215-7.854c-0.001,0.004-0.003,0.007-0.004,0.011l0,0c0.717,0.75,1.18,1.712,1.287,2.744c0.145,1.399,0.842,2.75,2.131,3.695
			c1.832,1.344,4.428,1.323,6.244-0.043c2.575-1.937,2.819-5.614,0.66-7.872c-0.839-0.878-1.908-1.392-3.022-1.553
			c-1.02-0.148-1.95-0.661-2.662-1.406c-0.004,0.001-0.007,0.002-0.011,0.003l8.212-7.85L151.036,177.521z"/>
		<path style="fill:#F57445;" d="M409.107,58.42l-10.197,8.306c0.002-0.004,0.004-0.008,0.006-0.013
			c-0.753-0.924-1.209-2.066-1.233-3.258c-0.025-1.303-0.462-2.604-1.349-3.694c-2.283-2.803-6.541-3.051-9.135-0.372
			c-1.829,1.889-2.226,4.868-0.946,7.164c0.901,1.616,2.352,2.611,3.938,2.977c1.17,0.271,2.208,0.94,2.967,1.872l0,0
			c0.005-0.001,0.009-0.003,0.013-0.004l-10.196,8.306l8.295,10.183c0.927-0.755,1.597-1.803,1.864-2.971
			c0.379-1.581,1.367-3.031,2.98-3.934c2.305-1.286,5.278-0.893,7.165,0.94c2.689,2.596,2.431,6.857-0.371,9.139
			c-1.088,0.887-2.387,1.317-3.694,1.342c-1.189,0.037-2.331,0.483-3.258,1.238l8.295,10.183l10.195-8.304
			c-0.001,0.004-0.003,0.007-0.004,0.012l0,0c0.759,0.931,1.205,2.083,1.233,3.284c0.039,1.627,0.719,3.25,2.12,4.459
			c1.991,1.718,4.988,1.932,7.208,0.523c3.148-1.999,3.767-6.218,1.483-9.021c-0.888-1.09-2.074-1.78-3.345-2.069
			c-1.163-0.264-2.188-0.942-2.942-1.866c-0.004,0-0.008,0.001-0.012,0.002l10.195-8.305L409.107,58.42z"/>
		<path style="fill:#FFB85A;" d="M54.343,177.249l9.69-8.892c-0.002,0.005-0.004,0.008-0.006,0.013
			c0.806,0.879,1.329,1.991,1.422,3.18c0.102,1.299,0.614,2.572,1.565,3.608c2.444,2.664,6.709,2.66,9.141-0.167
			c1.715-1.994,1.936-4.99,0.523-7.208c-0.994-1.56-2.502-2.468-4.107-2.74c-1.184-0.201-2.259-0.809-3.072-1.694l0,0
			c-0.004,0.001-0.009,0.003-0.013,0.004l9.69-8.892l-8.88-9.677c-0.881,0.808-1.488,1.894-1.686,3.075
			c-0.285,1.601-1.186,3.107-2.744,4.102c-2.225,1.419-5.216,1.202-7.208-0.516c-2.837-2.433-2.83-6.702-0.168-9.145
			c1.034-0.949,2.305-1.455,3.608-1.557c1.185-0.107,2.299-0.619,3.179-1.427l-8.88-9.677l-9.688,8.89
			c0.001-0.004,0.002-0.008,0.003-0.012l0,0c-0.812-0.885-1.325-2.009-1.424-3.206c-0.134-1.622-0.909-3.202-2.378-4.326
			c-2.088-1.598-5.093-1.635-7.226-0.098c-3.025,2.18-3.394,6.429-0.95,9.093c0.95,1.035,2.175,1.655,3.46,1.868
			c1.176,0.195,2.24,0.811,3.046,1.69c0.004-0.001,0.008-0.002,0.012-0.002l-9.689,8.89L54.343,177.249z"/>
		<path style="fill:#FFB85A;" d="M398.904,202.478c-0.135-2.299-1.82-4.32-4.06-4.855c-1.576-0.377-3.077-0.03-4.253,0.776
			c-0.868,0.594-1.915,0.867-2.965,0.804h0c-0.002,0.004-0.004,0.009-0.006,0.013l0.684-11.494l-11.482-0.683
			c-0.061,1.033,0.205,2.085,0.789,2.937c0.651,0.941,1.009,2.096,0.936,3.324c-0.188,3.159-3.084,5.511-6.305,4.941
			c-2.268-0.415-4.068-2.327-4.335-4.611c-0.185-1.608,0.341-3.065,1.27-4.131c0.693-0.788,1.095-1.8,1.157-2.845l-11.482-0.683
			l-0.684,11.495c-0.002-0.005-0.003-0.01-0.005-0.015h0c-1.05-0.062-2.057-0.457-2.848-1.151c-1.072-0.939-2.522-1.462-4.131-1.275
			c-2.288,0.266-4.201,2.072-4.607,4.339c-0.577,3.215,1.779,6.113,4.939,6.302c1.229,0.073,2.377-0.283,3.316-0.931
			c0.859-0.594,1.904-0.854,2.946-0.792c0.002-0.005,0.004-0.009,0.006-0.014l-0.684,11.495l11.493,0.684
			c-0.004,0.002-0.009,0.003-0.013,0.005v0c-0.062,1.05-0.457,2.057-1.15,2.848c-0.939,1.072-1.462,2.522-1.275,4.132
			c0.266,2.288,2.072,4.201,4.339,4.607c3.215,0.576,6.114-1.779,6.302-4.939c0.073-1.229-0.283-2.377-0.931-3.316
			c-0.594-0.859-0.854-1.904-0.792-2.946c-0.004-0.002-0.008-0.004-0.013-0.006l11.493,0.684l0.684-11.494
			c0.002,0.005,0.003,0.009,0.004,0.014c1.042,0.062,2.049,0.444,2.832,1.135c0.855,0.755,1.953,1.245,3.182,1.318
			C396.413,208.337,399.095,205.738,398.904,202.478z"/>
		<path style="fill:#FFB85A;" d="M143.025,72.337c0.333-2.279-0.909-4.599-2.994-5.576c-1.467-0.688-3.008-0.652-4.322-0.101
			c-0.97,0.406-2.051,0.461-3.066,0.188l0,0c-0.003,0.004-0.005,0.008-0.008,0.012l2.996-11.118l-11.106-2.993
			c-0.269,0.999-0.221,2.084,0.178,3.036c0.447,1.053,0.564,2.257,0.244,3.444c-0.824,3.056-4.135,4.773-7.175,3.563
			c-2.137-0.866-3.513-3.102-3.312-5.393c0.145-1.612,0.954-2.932,2.08-3.789c0.838-0.631,1.437-1.542,1.709-2.552l-11.106-2.993
			l-2.996,11.119c-0.001-0.005-0.001-0.01-0.002-0.016l0,0c-1.016-0.274-1.922-0.864-2.557-1.703
			c-0.86-1.137-2.174-1.942-3.788-2.085c-2.294-0.203-4.533,1.179-5.39,3.317c-1.215,3.031,0.504,6.347,3.562,7.171
			c1.188,0.32,2.385,0.204,3.436-0.241c0.961-0.408,2.037-0.451,3.046-0.179c0.003-0.004,0.006-0.008,0.009-0.013l-2.996,11.118
			l11.116,2.996c-0.005,0.001-0.009,0.001-0.014,0.002l0,0c-0.274,1.016-0.864,1.922-1.703,2.557
			c-1.137,0.86-1.942,2.174-2.085,3.788c-0.203,2.294,1.179,4.533,3.317,5.39c3.031,1.215,6.347-0.504,7.171-3.562
			c0.32-1.189,0.204-2.385-0.241-3.436c-0.408-0.962-0.451-2.037-0.179-3.046c-0.004-0.003-0.007-0.006-0.011-0.009l11.117,2.996
			l2.996-11.117c0.001,0.005,0.001,0.01,0.001,0.015c1.008,0.272,1.917,0.85,2.543,1.685c0.685,0.913,1.661,1.614,2.849,1.935
			C139.4,77.57,142.552,75.568,143.025,72.337z"/>
	</g>
	<g>
		<g>
			<path style="fill:#49733B;" d="M153.04,500H0V397.28c1.94,0.05,3.84,0.58,5.46,1.67c5.01,3.36,6.19,11.25,2.37,15.93
				c4.21-2.48,9.97,1.32,10.96,6.1c0.99,4.79-1.44,9.65-4.52,13.45c4.6-1.21,9.84,0.6,12.7,4.39c2.87,3.8,3.18,9.33,0.76,13.42
				c4.93-4.14,10.69-8.1,17.13-7.93c6.43,0.17,12.87,6.57,10.69,12.63c3.33-3.6,9.19-4.55,13.48-2.18
				c4.29,2.37,6.61,7.84,5.32,12.57c3.54-1.18,7.31-2.38,10.94-1.53c3.64,0.85,6.86,4.61,5.7,8.16c5.12-1.63,10.56-3.28,15.78-2
				c5.22,1.29,9.79,6.76,8.08,11.85C127.88,488.46,140.64,493.87,153.04,500z"/>
		</g>
		<g>
			<g>
				<g>
					
						<ellipse transform="matrix(0.0624 -0.998 0.998 0.0624 -388.9922 488.727)" style="fill:#FFFFFF;" cx="65.63" cy="451.405" rx="8.845" ry="3.02"/>
					
						<ellipse transform="matrix(0.0624 -0.998 0.998 0.0624 -419.9339 514.3526)" style="fill:#FFFFFF;" cx="63.798" cy="480.687" rx="8.845" ry="3.02"/>
					
						<ellipse transform="matrix(0.0624 -0.998 0.998 0.0624 -391.6502 517.0106)" style="fill:#FFFFFF;" cx="79.355" cy="466.962" rx="3.02" ry="8.845"/>
					
						<ellipse transform="matrix(0.0624 -0.998 0.998 0.0624 -417.2758 486.0689)" style="fill:#FFFFFF;" cx="50.073" cy="465.13" rx="3.02" ry="8.845"/>
					
						<ellipse transform="matrix(0.5531 -0.8331 0.8331 0.5531 -358.0543 248.3879)" style="fill:#FFFFFF;" cx="52.493" cy="457.933" rx="3.02" ry="8.845"/>
					
						<ellipse transform="matrix(0.5531 -0.8331 0.8331 0.5531 -360.6496 276.0038)" style="fill:#FFFFFF;" cx="76.936" cy="474.16" rx="3.02" ry="8.845"/>
					
						<ellipse transform="matrix(0.5531 -0.8331 0.8331 0.5531 -345.544 263.4935)" style="fill:#FFFFFF;" cx="72.828" cy="453.825" rx="8.845" ry="3.02"/>
					
						<ellipse transform="matrix(0.5531 -0.8331 0.8331 0.5531 -373.1599 260.8982)" style="fill:#FFFFFF;" cx="56.601" cy="478.268" rx="8.845" ry="3.02"/>
					
						<ellipse transform="matrix(0.8956 -0.445 0.445 0.8956 -195.4489 73.197)" style="fill:#FFFFFF;" cx="58.187" cy="452.909" rx="3.02" ry="8.845"/>
					
						<ellipse transform="matrix(0.8956 -0.445 0.445 0.8956 -205.7764 81.7501)" style="fill:#FFFFFF;" cx="71.241" cy="479.183" rx="3.02" ry="8.845"/>
					
						<ellipse transform="matrix(0.8956 -0.445 0.445 0.8956 -196.3361 82.6373)" style="fill:#FFFFFF;" cx="77.851" cy="459.519" rx="8.845" ry="3.02"/>
					
						<ellipse transform="matrix(0.8956 -0.445 0.445 0.8956 -204.8892 72.3098)" style="fill:#FFFFFF;" cx="51.577" cy="472.574" rx="8.845" ry="3.02"/>
				</g>
				<circle style="fill:#C34644;" cx="64.714" cy="466.046" r="9.869"/>
			</g>
			<g>
				<g>
					
						<ellipse transform="matrix(0.0624 -0.998 0.998 0.0624 -408.0861 425.6099)" style="fill:#FFFFFF;" cx="22.489" cy="430.01" rx="4.882" ry="1.667"/>
					
						<ellipse transform="matrix(0.0624 -0.998 0.998 0.0624 -425.1653 439.7547)" style="fill:#FFFFFF;" cx="21.478" cy="446.172" rx="4.882" ry="1.667"/>
					
						<ellipse transform="matrix(0.0624 -0.998 0.998 0.0624 -409.5533 441.2219)" style="fill:#FFFFFF;" cx="30.065" cy="438.597" rx="1.667" ry="4.882"/>
					
						<ellipse transform="matrix(0.0624 -0.998 0.998 0.0624 -423.6981 424.1427)" style="fill:#FFFFFF;" cx="13.902" cy="437.586" rx="1.667" ry="4.882"/>
					
						<ellipse transform="matrix(0.5531 -0.8331 0.8331 0.5531 -354.4425 206.4806)" style="fill:#FFFFFF;" cx="15.237" cy="433.613" rx="1.667" ry="4.882"/>
					
						<ellipse transform="matrix(0.5531 -0.8331 0.8331 0.5531 -355.8751 221.724)" style="fill:#FFFFFF;" cx="28.729" cy="442.57" rx="1.667" ry="4.882"/>
					
						<ellipse transform="matrix(0.5531 -0.8331 0.8331 0.5531 -347.5371 214.8186)" style="fill:#FFFFFF;" cx="26.462" cy="431.345" rx="4.882" ry="1.667"/>
					
						<ellipse transform="matrix(0.5531 -0.8331 0.8331 0.5531 -362.7805 213.3861)" style="fill:#FFFFFF;" cx="17.505" cy="444.837" rx="4.882" ry="1.667"/>
					
						<ellipse transform="matrix(0.8956 -0.445 0.445 0.8956 -189.7867 53.1796)" style="fill:#FFFFFF;" cx="18.38" cy="430.84" rx="1.667" ry="4.882"/>
					
						<ellipse transform="matrix(0.8956 -0.445 0.445 0.8956 -195.4872 57.9007)" style="fill:#FFFFFF;" cx="25.586" cy="445.343" rx="1.667" ry="4.882"/>
					
						<ellipse transform="matrix(0.8956 -0.445 0.445 0.8956 -190.2764 58.3904)" style="fill:#FFFFFF;" cx="29.235" cy="434.488" rx="4.882" ry="1.667"/>
					
						<ellipse transform="matrix(0.8956 -0.445 0.445 0.8956 -194.9975 52.6898)" style="fill:#FFFFFF;" cx="14.732" cy="441.694" rx="4.882" ry="1.667"/>
				</g>
				<circle style="fill:#C34644;" cx="21.983" cy="438.091" r="5.448"/>
			</g>
			<g>
				<g>
					
						<ellipse transform="matrix(0.0624 -0.998 0.998 0.0624 -447.7158 464.1884)" style="fill:#FFFFFF;" cx="23.207" cy="470.392" rx="5.911" ry="2.019"/>
					
						<ellipse transform="matrix(0.0624 -0.998 0.998 0.0624 -468.3959 481.3155)" style="fill:#FFFFFF;" cx="21.983" cy="489.962" rx="5.911" ry="2.019"/>
					
						<ellipse transform="matrix(0.0624 -0.998 0.998 0.0624 -449.4923 483.092)" style="fill:#FFFFFF;" cx="32.381" cy="480.789" rx="2.019" ry="5.911"/>
					
						<ellipse transform="matrix(0.0624 -0.998 0.998 0.0624 -466.6194 462.4119)" style="fill:#FFFFFF;" cx="12.81" cy="479.565" rx="2.019" ry="5.911"/>
					
						<ellipse transform="matrix(0.5531 -0.8331 0.8331 0.5531 -389.0808 224.1924)" style="fill:#FFFFFF;" cx="14.427" cy="474.754" rx="2.019" ry="5.911"/>
					
						<ellipse transform="matrix(0.5531 -0.8331 0.8331 0.5531 -390.8154 242.6496)" style="fill:#FFFFFF;" cx="30.764" cy="485.6" rx="2.019" ry="5.911"/>
					
						<ellipse transform="matrix(0.5531 -0.8331 0.8331 0.5531 -380.7195 234.2883)" style="fill:#FFFFFF;" cx="28.018" cy="472.009" rx="5.911" ry="2.019"/>
					
						<ellipse transform="matrix(0.5531 -0.8331 0.8331 0.5531 -399.1767 232.5537)" style="fill:#FFFFFF;" cx="17.173" cy="488.345" rx="5.911" ry="2.019"/>
					
						<ellipse transform="matrix(0.8956 -0.445 0.445 0.8956 -207.8484 57.3501)" style="fill:#FFFFFF;" cx="18.233" cy="471.397" rx="2.019" ry="5.911"/>
					
						<ellipse transform="matrix(0.8956 -0.445 0.445 0.8956 -214.7509 63.0666)" style="fill:#FFFFFF;" cx="26.958" cy="488.958" rx="2.019" ry="5.911"/>
					
						<ellipse transform="matrix(0.8956 -0.445 0.445 0.8956 -208.4414 63.6596)" style="fill:#FFFFFF;" cx="31.376" cy="475.815" rx="5.911" ry="2.019"/>
					
						<ellipse transform="matrix(0.8956 -0.445 0.445 0.8956 -214.1579 56.7571)" style="fill:#FFFFFF;" cx="13.815" cy="484.54" rx="5.911" ry="2.019"/>
				</g>
				<circle style="fill:#C34644;" cx="22.595" cy="480.177" r="6.596"/>
			</g>
		</g>
	</g>
	<g>
		<g>
			<path style="fill:#49733B;" d="M346.96,500H500V397.28c-1.94,0.05-3.84,0.58-5.46,1.67c-5.01,3.36-6.19,11.25-2.37,15.93
				c-4.21-2.48-9.97,1.32-10.96,6.1c-0.99,4.79,1.44,9.65,4.52,13.45c-4.6-1.21-9.84,0.6-12.7,4.39c-2.87,3.8-3.18,9.33-0.76,13.42
				c-4.93-4.14-10.69-8.1-17.13-7.93c-6.43,0.17-12.87,6.57-10.69,12.63c-3.33-3.6-9.19-4.55-13.48-2.18
				c-4.29,2.37-6.61,7.84-5.32,12.57c-3.54-1.18-7.31-2.38-10.94-1.53c-3.64,0.85-6.86,4.61-5.7,8.16c-5.12-1.63-10.56-3.28-15.78-2
				c-5.22,1.29-9.79,6.76-8.08,11.85C372.12,488.46,359.36,493.87,346.96,500z"/>
		</g>
		<g>
			<g>
				
					<ellipse transform="matrix(0.998 -0.0624 0.0624 0.998 -28.3744 30.3721)" style="fill:#FFFFFF;" cx="471.853" cy="469.257" rx="2.048" ry="5.996"/>
				
					<ellipse transform="matrix(0.998 -0.0624 0.0624 0.998 -29.6113 30.4884)" style="fill:#FFFFFF;" cx="473.095" cy="489.109" rx="2.048" ry="5.996"/>
				
					<ellipse transform="matrix(0.998 -0.0624 0.0624 0.998 -29.051 29.8118)" style="fill:#FFFFFF;" cx="462.548" cy="479.804" rx="5.996" ry="2.048"/>
				
					<ellipse transform="matrix(0.998 -0.0624 0.0624 0.998 -28.9348 31.0487)" style="fill:#FFFFFF;" cx="482.4" cy="478.563" rx="5.996" ry="2.048"/>
				
					<ellipse transform="matrix(0.8331 -0.5531 0.5531 0.8331 -181.7606 344.9503)" style="fill:#FFFFFF;" cx="480.76" cy="473.683" rx="5.996" ry="2.048"/>
				
					<ellipse transform="matrix(0.8331 -0.5531 0.5531 0.8331 -190.6107 337.6207)" style="fill:#FFFFFF;" cx="464.188" cy="484.684" rx="5.996" ry="2.048"/>
				
					<ellipse transform="matrix(0.8331 -0.5531 0.5531 0.8331 -182.5209 336.8604)" style="fill:#FFFFFF;" cx="466.973" cy="470.898" rx="2.048" ry="5.996"/>
				
					<ellipse transform="matrix(0.8331 -0.5531 0.5531 0.8331 -189.8505 345.7106)" style="fill:#FFFFFF;" cx="477.975" cy="487.469" rx="2.048" ry="5.996"/>
				
					<ellipse transform="matrix(0.445 -0.8956 0.8956 0.445 -156.4584 688.1097)" style="fill:#FFFFFF;" cx="476.899" cy="470.277" rx="5.996" ry="2.048"/>
				
					<ellipse transform="matrix(0.445 -0.8956 0.8956 0.445 -177.3235 690.0706)" style="fill:#FFFFFF;" cx="468.049" cy="488.09" rx="5.996" ry="2.048"/>
				
					<ellipse transform="matrix(0.445 -0.8956 0.8956 0.445 -167.8714 678.6576)" style="fill:#FFFFFF;" cx="463.567" cy="474.758" rx="2.048" ry="5.996"/>
				
					<ellipse transform="matrix(0.445 -0.8956 0.8956 0.445 -165.9105 699.5227)" style="fill:#FFFFFF;" cx="481.381" cy="483.609" rx="2.048" ry="5.996"/>
			</g>
			<circle style="fill:#C34644;" cx="472.474" cy="479.183" r="6.691"/>
		</g>
		<g>
			<g>
				
					<ellipse transform="matrix(0.998 -0.0624 0.0624 0.998 -26.5316 30.215)" style="fill:#FFFFFF;" cx="470.26" cy="439.688" rx="1.667" ry="4.882"/>
				
					<ellipse transform="matrix(0.998 -0.0624 0.0624 0.998 -27.5386 30.3096)" style="fill:#FFFFFF;" cx="471.271" cy="455.85" rx="1.667" ry="4.882"/>
				
					<ellipse transform="matrix(0.998 -0.0624 0.0624 0.998 -27.0824 29.7588)" style="fill:#FFFFFF;" cx="462.684" cy="448.275" rx="4.882" ry="1.667"/>
				
					<ellipse transform="matrix(0.998 -0.0624 0.0624 0.998 -26.9878 30.7658)" style="fill:#FFFFFF;" cx="478.847" cy="447.264" rx="4.882" ry="1.667"/>
				
					<ellipse transform="matrix(0.8331 -0.5531 0.5531 0.8331 -165.4931 338.0818)" style="fill:#FFFFFF;" cx="477.511" cy="443.291" rx="4.882" ry="1.667"/>
				
					<ellipse transform="matrix(0.8331 -0.5531 0.5531 0.8331 -172.6986 332.1143)" style="fill:#FFFFFF;" cx="464.019" cy="452.248" rx="4.882" ry="1.667"/>
				
					<ellipse transform="matrix(0.8331 -0.5531 0.5531 0.8331 -166.1121 331.4953)" style="fill:#FFFFFF;" cx="466.287" cy="441.023" rx="1.667" ry="4.882"/>
				
					<ellipse transform="matrix(0.8331 -0.5531 0.5531 0.8331 -172.0797 338.7008)" style="fill:#FFFFFF;" cx="475.244" cy="454.515" rx="1.667" ry="4.882"/>
				
					<ellipse transform="matrix(0.445 -0.8956 0.8956 0.445 -131.2124 669.3254)" style="fill:#FFFFFF;" cx="474.368" cy="440.518" rx="4.882" ry="1.667"/>
				
					<ellipse transform="matrix(0.445 -0.8956 0.8956 0.445 -148.2001 670.9219)" style="fill:#FFFFFF;" cx="467.162" cy="455.021" rx="4.882" ry="1.667"/>
				
					<ellipse transform="matrix(0.445 -0.8956 0.8956 0.445 -140.5045 661.6299)" style="fill:#FFFFFF;" cx="463.514" cy="444.166" rx="1.667" ry="4.882"/>
				
					<ellipse transform="matrix(0.445 -0.8956 0.8956 0.445 -138.908 678.6175)" style="fill:#FFFFFF;" cx="478.017" cy="451.372" rx="1.667" ry="4.882"/>
			</g>
			<circle style="fill:#C34644;" cx="470.765" cy="447.769" r="5.448"/>
		</g>
		<g>
			<g>
				
					<ellipse transform="matrix(0.998 -0.0624 0.0624 0.998 -27.3834 28.0615)" style="fill:#FFFFFF;" cx="435.372" cy="452.242" rx="1.501" ry="4.396"/>
				
					<ellipse transform="matrix(0.998 -0.0624 0.0624 0.998 -28.2902 28.1467)" style="fill:#FFFFFF;" cx="436.282" cy="466.796" rx="1.501" ry="4.396"/>
				
					<ellipse transform="matrix(0.998 -0.0624 0.0624 0.998 -27.8794 27.6507)" style="fill:#FFFFFF;" cx="428.55" cy="459.974" rx="4.396" ry="1.501"/>
				
					<ellipse transform="matrix(0.998 -0.0624 0.0624 0.998 -27.7941 28.5575)" style="fill:#FFFFFF;" cx="443.104" cy="459.064" rx="4.396" ry="1.501"/>
				
					<ellipse transform="matrix(0.8331 -0.5531 0.5531 0.8331 -178.1809 320.4214)" style="fill:#FFFFFF;" cx="441.901" cy="455.486" rx="4.396" ry="1.501"/>
				
					<ellipse transform="matrix(0.8331 -0.5531 0.5531 0.8331 -184.6692 315.0479)" style="fill:#FFFFFF;" cx="429.752" cy="463.552" rx="4.396" ry="1.501"/>
				
					<ellipse transform="matrix(0.8331 -0.5531 0.5531 0.8331 -178.7383 314.4906)" style="fill:#FFFFFF;" cx="431.794" cy="453.444" rx="1.501" ry="4.396"/>
				
					<ellipse transform="matrix(0.8331 -0.5531 0.5531 0.8331 -184.1118 320.9788)" style="fill:#FFFFFF;" cx="439.859" cy="465.593" rx="1.501" ry="4.396"/>
				
					<ellipse transform="matrix(0.445 -0.8956 0.8956 0.445 -161.9728 644.6373)" style="fill:#FFFFFF;" cx="439.071" cy="452.989" rx="4.396" ry="1.501"/>
				
					<ellipse transform="matrix(0.445 -0.8956 0.8956 0.445 -177.2695 646.0749)" style="fill:#FFFFFF;" cx="432.582" cy="466.049" rx="4.396" ry="1.501"/>
				
					<ellipse transform="matrix(0.445 -0.8956 0.8956 0.445 -170.3399 637.7078)" style="fill:#FFFFFF;" cx="429.297" cy="456.275" rx="1.501" ry="4.396"/>
				
					<ellipse transform="matrix(0.445 -0.8956 0.8956 0.445 -168.9023 653.0045)" style="fill:#FFFFFF;" cx="442.356" cy="462.763" rx="1.501" ry="4.396"/>
			</g>
			<circle style="fill:#C34644;" cx="435.827" cy="459.519" r="4.905"/>
		</g>
	</g>
	<g>
		<path style="fill:#FFE8D4;" d="M366.492,109.642c-7.574,0-13.714,6.14-13.714,13.714c0,7.574,6.14,13.714,13.714,13.714
			s13.714-6.14,13.714-13.714C380.206,115.782,374.066,109.642,366.492,109.642z M374.763,124.303c0,0.906-0.734,1.64-1.64,1.64
			h-2.405c-0.906,0-1.64,0.734-1.64,1.64v2.405c0,0.905-0.734,1.64-1.64,1.64h-1.894c-0.906,0-1.64-0.734-1.64-1.64v-2.405
			c0-0.905-0.734-1.64-1.64-1.64h-2.405c-0.906,0-1.64-0.734-1.64-1.64v-1.894c0-0.906,0.734-1.64,1.64-1.64h2.405
			c0.905,0,1.64-0.734,1.64-1.64v-2.405c0-0.906,0.734-1.64,1.64-1.64h1.894c0.906,0,1.64,0.734,1.64,1.64v2.405
			c0,0.906,0.734,1.64,1.64,1.64h2.405c0.906,0,1.64,0.734,1.64,1.64V124.303z"/>
		<path style="fill:#FFE8D4;" d="M451.5,38.83c-4.501,0-8.15,3.649-8.15,8.15c0,4.501,3.649,8.15,8.15,8.15
			c4.501,0,8.15-3.649,8.15-8.15C459.65,42.479,456.001,38.83,451.5,38.83z M456.415,47.543c0,0.538-0.436,0.974-0.974,0.974h-1.429
			c-0.538,0-0.974,0.436-0.974,0.974v1.429c0,0.538-0.436,0.974-0.974,0.974h-1.125c-0.538,0-0.974-0.436-0.974-0.974v-1.429
			c0-0.538-0.436-0.974-0.974-0.974h-1.429c-0.538,0-0.974-0.436-0.974-0.974v-1.125c0-0.538,0.436-0.974,0.974-0.974h1.429
			c0.538,0,0.974-0.436,0.974-0.974v-1.429c0-0.538,0.436-0.974,0.974-0.974h1.125c0.538,0,0.974,0.436,0.974,0.974v1.429
			c0,0.538,0.436,0.974,0.974,0.974h1.429c0.538,0,0.974,0.436,0.974,0.974V47.543z"/>
		<path style="fill:#FFE8D4;" d="M76.232,36.816c-5.415,0-9.805,4.39-9.805,9.805c0,5.415,4.39,9.805,9.805,9.805
			s9.805-4.39,9.805-9.805C86.037,41.206,81.647,36.816,76.232,36.816z M82.145,47.298c0,0.647-0.525,1.172-1.172,1.172h-1.72
			c-0.647,0-1.172,0.525-1.172,1.172v1.72c0,0.647-0.525,1.172-1.172,1.172h-1.354c-0.647,0-1.172-0.525-1.172-1.172v-1.72
			c0-0.647-0.525-1.172-1.172-1.172h-1.72c-0.647,0-1.172-0.525-1.172-1.172v-1.354c0-0.647,0.525-1.172,1.172-1.172h1.72
			c0.647,0,1.172-0.525,1.172-1.172v-1.72c0-0.647,0.525-1.172,1.172-1.172h1.354c0.647,0,1.172,0.525,1.172,1.172v1.72
			c0,0.647,0.525,1.172,1.172,1.172h1.72c0.647,0,1.172,0.525,1.172,1.172V47.298z"/>
		<path style="fill:#FFE8D4;" d="M150.366,92.865c-7.574,0-13.714,6.14-13.714,13.714c0,7.574,6.14,13.714,13.714,13.714
			c7.574,0,13.714-6.14,13.714-13.714C164.08,99.005,157.94,92.865,150.366,92.865z M158.637,107.526c0,0.906-0.734,1.64-1.64,1.64
			h-2.405c-0.906,0-1.64,0.734-1.64,1.64v2.405c0,0.905-0.734,1.64-1.64,1.64h-1.894c-0.906,0-1.64-0.734-1.64-1.64v-2.405
			c0-0.905-0.734-1.64-1.64-1.64h-2.405c-0.906,0-1.64-0.734-1.64-1.64v-1.894c0-0.906,0.734-1.64,1.64-1.64h2.405
			c0.905,0,1.64-0.734,1.64-1.64v-2.405c0-0.906,0.734-1.64,1.64-1.64h1.894c0.906,0,1.64,0.734,1.64,1.64v2.405
			c0,0.906,0.734,1.64,1.64,1.64h2.405c0.906,0,1.64,0.734,1.64,1.64V107.526z"/>
		<path style="fill:#FFE8D4;" d="M399.625,150.149c-5.51,0-9.977,4.467-9.977,9.977c0,5.51,4.467,9.977,9.977,9.977
			s9.977-4.467,9.977-9.977C409.602,154.616,405.135,150.149,399.625,150.149z M405.642,160.815c0,0.659-0.534,1.193-1.193,1.193
			h-1.75c-0.659,0-1.193,0.534-1.193,1.193v1.75c0,0.659-0.534,1.193-1.193,1.193h-1.378c-0.659,0-1.193-0.534-1.193-1.193v-1.75
			c0-0.659-0.534-1.193-1.193-1.193h-1.75c-0.659,0-1.193-0.534-1.193-1.193v-1.378c0-0.659,0.534-1.193,1.193-1.193h1.75
			c0.659,0,1.193-0.534,1.193-1.193v-1.75c0-0.659,0.534-1.193,1.193-1.193h1.378c0.659,0,1.193,0.534,1.193,1.193v1.75
			c0,0.659,0.534,1.193,1.193,1.193h1.75c0.659,0,1.193,0.534,1.193,1.193V160.815z"/>
		<path style="fill:#FFE8D4;" d="M100.171,160.126c-5.51,0-9.977,4.467-9.977,9.977c0,5.51,4.467,9.977,9.977,9.977
			c5.51,0,9.977-4.467,9.977-9.977C110.148,164.593,105.681,160.126,100.171,160.126z M106.188,170.792
			c0,0.659-0.534,1.193-1.193,1.193h-1.75c-0.659,0-1.193,0.534-1.193,1.193v1.75c0,0.659-0.534,1.193-1.193,1.193h-1.378
			c-0.659,0-1.193-0.534-1.193-1.193v-1.75c0-0.659-0.534-1.193-1.193-1.193h-1.75c-0.659,0-1.193-0.534-1.193-1.193v-1.378
			c0-0.659,0.534-1.193,1.193-1.193h1.75c0.659,0,1.193-0.534,1.193-1.193v-1.75c0-0.659,0.534-1.193,1.193-1.193h1.378
			c0.659,0,1.193,0.534,1.193,1.193v1.75c0,0.659,0.534,1.193,1.193,1.193h1.75c0.659,0,1.193,0.534,1.193,1.193V170.792z"/>
		<path style="fill:#FFE8D4;" d="M316.368,182.497c-3.941,0-7.135,3.195-7.135,7.135c0,3.941,3.194,7.135,7.135,7.135
			s7.135-3.195,7.135-7.135C323.503,185.691,320.308,182.497,316.368,182.497z M320.671,190.125c0,0.471-0.382,0.853-0.853,0.853
			h-1.251c-0.471,0-0.853,0.382-0.853,0.853v1.251c0,0.471-0.382,0.853-0.853,0.853h-0.985c-0.471,0-0.853-0.382-0.853-0.853v-1.251
			c0-0.471-0.382-0.853-0.853-0.853h-1.251c-0.471,0-0.853-0.382-0.853-0.853v-0.985c0-0.471,0.382-0.853,0.853-0.853h1.251
			c0.471,0,0.853-0.382,0.853-0.853v-1.251c0-0.471,0.382-0.853,0.853-0.853h0.985c0.471,0,0.853,0.382,0.853,0.853v1.251
			c0,0.471,0.382,0.853,0.853,0.853h1.251c0.471,0,0.853,0.382,0.853,0.853V190.125z"/>
		<path style="fill:#FFE8D4;" d="M35.545,84.433c-3.941,0-7.135,3.195-7.135,7.135c0,3.941,3.194,7.135,7.135,7.135
			s7.135-3.195,7.135-7.135C42.68,87.627,39.486,84.433,35.545,84.433z M39.848,92.061c0,0.471-0.382,0.853-0.853,0.853h-1.251
			c-0.471,0-0.853,0.382-0.853,0.853v1.251c0,0.471-0.382,0.853-0.853,0.853h-0.985c-0.471,0-0.853-0.382-0.853-0.853v-1.251
			c0-0.471-0.382-0.853-0.853-0.853h-1.251c-0.471,0-0.853-0.382-0.853-0.853v-0.985c0-0.471,0.382-0.853,0.853-0.853h1.251
			c0.471,0,0.853-0.382,0.853-0.853v-1.251c0-0.471,0.382-0.853,0.853-0.853h0.985c0.471,0,0.853,0.382,0.853,0.853v1.251
			c0,0.471,0.382,0.853,0.853,0.853h1.251c0.471,0,0.853,0.382,0.853,0.853V92.061z"/>
	</g>
</g>
</svg>
