<svg width="512" height="512" viewBox="0 0 512 512" fill="none" xmlns="http://www.w3.org/2000/svg">
<g clip-path="url(#clip0_2_5784)">
<path d="M0.000976562 256C0.000976562 287.314 5.63398 317.31 15.924 345.043L256.001 367.304L496.078 345.043C506.368 317.31 512.001 287.314 512.001 256C512.001 224.686 506.368 194.69 496.078 166.957L256.001 144.696L15.924 166.957C5.63398 194.69 0.000976563 224.686 0.000976563 256H0.000976562Z" fill="#FFDA44"/>
<path d="M496.078 166.957C459.907 69.473 366.072 0 256.001 0C145.93 0 52.095 69.473 15.924 166.957H496.078Z" fill="#D80027"/>
<path d="M15.924 345.043C52.095 442.527 145.93 512 256.001 512C366.072 512 459.907 442.527 496.078 345.043H15.924Z" fill="#D80027"/>
</g>
<defs>
<clipPath id="clip0_2_5784">
<rect width="512" height="512" fill="white" transform="translate(0.000976562)"/>
</clipPath>
</defs>
</svg>
